<?xml version="1.0" encoding="utf-8"?>
<!-- Generator: Adobe Illustrator 21.0.2, SVG Export Plug-In . SVG Version: 6.00 Build 0)  -->
<svg version="1.1" id="Layer_1" xmlns="http://www.w3.org/2000/svg" xmlns:xlink="http://www.w3.org/1999/xlink" x="0px" y="0px"
	 viewBox="0 0 2198.4 935.2" style="enable-background:new 0 0 2198.4 935.2;" xml:space="preserve">
<style type="text/css">
	.st0{fill:#5989C0;}
	.st1{fill:#406B9E;}
	.st2{fill:#4E81BE;}
	.st3{opacity:0.66;fill:#4877AF;}
	.st4{opacity:0.37;fill:#406B9E;}
	.st5{fill:#BFBFC1;}
	.st6{opacity:0.66;fill:#406B9E;}
	.st7{fill:none;stroke:#2C4F77;stroke-width:4;stroke-miterlimit:10;}
	.st8{fill:none;stroke:#2C4F77;stroke-width:5;stroke-miterlimit:10;}
	.st9{fill:#2C4F77;}
</style>
<polygon class="st0" points="1548,494.7 1532.6,494.7 1532.6,530.5 1476.8,530.5 1476.8,462.4 1470.6,462.4 1470.6,448.5 
	1462.7,448.5 1462.7,420.8 1450.2,420.8 1450.2,448.5 1442.3,448.5 1442.3,462.4 1433.3,462.4 1433.3,414.5 1385.9,414.5 
	1385.9,487.8 1329.5,487.8 1329.5,448.5 1318.8,448.5 1318.8,430.6 1297.9,430.6 1297.9,448.5 1279.9,448.5 1279.9,511.9 
	1246,511.9 1246,409.3 1242.7,409.3 1242.7,398.9 1231.4,398.9 1231.4,393.7 1215.6,393.7 1215.6,398.9 1206.6,398.9 1206.6,409.3 
	1199.8,409.3 1199.8,530.5 1191.9,530.5 1191.9,487.8 1168.2,487.8 1168.2,457.8 1157.5,457.8 1157.5,502.2 1148.9,502.2 
	1148.9,494.7 1132.1,494.7 1132.1,502.2 1127,502.2 1127,526.5 1109,526.5 1109,439.3 1100.5,439.3 1100.5,430.6 1091.8,430.6 
	1091.8,424.9 1072.9,424.9 1072.9,430.6 1065.5,430.6 1065.5,439.3 1057.1,439.3 1057.1,494.7 965.1,494.7 965.1,530.5 964,530.5 
	964,701.5 1548,701.5 "/>
<path class="st1" d="M0,660.6c0,0,316.9-46.5,617.6,0c300.7,46.5,945,31.9,945,31.9s381.5-28.8,609.2,9H0V660.6z"/>
<rect x="-34" y="692" class="st2" width="2250" height="254"/>
<polygon class="st3" points="1548,830.5 1532.6,830.5 1532.6,808.2 1476.8,808.2 1476.8,850.7 1470.6,850.7 1470.6,859.3 
	1462.7,859.3 1462.7,876.6 1450.2,876.6 1450.2,859.3 1442.3,859.3 1442.3,850.7 1433.3,850.7 1433.3,880.6 1385.9,880.6 
	1385.9,834.8 1329.5,834.8 1329.5,859.3 1318.8,859.3 1318.8,870.5 1297.9,870.5 1297.9,859.3 1279.9,859.3 1279.9,819.8 
	1246,819.8 1246,883.8 1242.7,883.8 1242.7,890.3 1231.4,890.3 1231.4,893.6 1215.6,893.6 1215.6,890.3 1206.6,890.3 1206.6,883.8 
	1199.8,883.8 1199.8,808.2 1191.9,808.2 1191.9,834.8 1168.2,834.8 1168.2,853.6 1157.5,853.6 1157.5,825.8 1148.9,825.8 
	1148.9,830.5 1132.1,830.5 1132.1,825.8 1127,825.8 1127,810.7 1109,810.7 1109,865.1 1100.5,865.1 1100.5,870.5 1091.8,870.5 
	1091.8,874.1 1072.9,874.1 1072.9,870.5 1065.5,870.5 1065.5,865.1 1057.1,865.1 1057.1,830.5 965.1,830.5 965.1,808.2 964,808.2 
	964,701.5 1548,701.5 "/>
<path class="st4" d="M0,720.1c0,0,316.9,34.3,617.6,0s945-23.5,945-23.5s381.5,21.2,609.2-6.6H0V720.1z"/>
<path class="st5" d="M666.8,622.4c-0.6,0-1.2,0-2,0c0-0.8,0-1.4,0-2c0.6,0,1.2,0,2,0C666.8,621.2,666.8,621.8,666.8,622.4z"/>
<path class="st5" d="M685.8,628.4c-0.5,0.4-1,0.8-2,1.6c0-1.4,0-2,0-2.6C684.5,627.5,685.7,626.9,685.8,628.4z"/>
<path class="st6" d="M2163,735.3v-0.4h-37.7v0.4h-70.6v-6.6h-406v6.6H1637v-0.4h-37.7v0.4H648.7v4.7l1.5,0.6h1.2
	c0.3,0.1,0.5,0.2,0.9,0.3c0.9,0,1.9,0,2.8,0l2.1,0.8l0,0c0.4,0,0.8,0,1.2,0c0.3,0.1,0.5,0.2,0.8,0.3c1.7,0.1,3.5,0,5.2,0
	c-0.4,0.4-0.7,0.8-1.1,1.3c-0.9,1.1-1.8,2.2-2.7,3.2c-0.6,0.6-1.2,1.3-1.8,1.9c-0.7,0.8-1.5,1.6-2.2,2.5c-0.4,0.5-0.7,0.9-1,1.4
	c-0.8,1.1-1.6,2.2-3.2,3.3l-0.1,0l0.1,0c0.6,0.2,1.3,0.3,2.2,0.6l0,0h0c0.2,0,0.5,0,0.7,0c0.4,0.1,0.8,0.2,1.3,0.3
	c6.5,0,13.3,0,20.1,0c2.4,0,4.7,0,7.1-0.3c2.4-0.3,4.8-0.7,7.5-0.5c0.6,0,1.2-0.1,2-0.3l0.3,0.1c-0.1,0.7-0.4,1.4-0.6,2.1
	c-0.4,1.1-0.9,2.1-0.5,3.2l0,0c0,0,0,0.1,0,0.1c-1.3,0.8-1.2,1.6-1,2.4c0.2,0.9,0.3,1.7-1.2,2.4l-0.1,0l1.9,0.6l0,0
	c0.4,0,0.7,0,1.1,0c0.3,0.1,0.6,0.2,0.9,0.3c4,0.1,8.2-0.2,12.4,0.4c1.8,0.2,3.9-0.3,5.5-0.3c5.6,0.1,10.9-0.6,16.4-0.5
	c0.3,0.2,0.6,0.4,1,0.6l0.1,0.1c0.7,0.4,1.5,0.8,2.4,1.2c0.4,0.2,0.8,0.4,1.1,0.6c0.6,0.3,1.2,0.6,1.8,0.8c0.8,0.3,1.5,0.6,2.3,0.9
	c2.4,1,4.9,2,8.2,2.7c1.4,0.3,2.8,0.7,4.1,1.1c1.8,0.5,3.7,1,5.7,1.4c0.7,0.1,1.4,0.3,2.2,0.4c1.1,0.2,2.2,0.5,3.5,0.6
	c1.7,0.3,3.4,0.6,5.6,0.3c2.1-3.3,3.3-6.6,5.7-9.9c1,0.3,1.8,0.7,2.5,1.1c0.6,0.3,1.1,0.6,1.9,0.9c1.6,0.6,3,1.2,4.3,1.9
	c0.6,0.3,1.1,0.5,1.7,0.8v0.9h2.1c0,0.1,0,0.2,0,0.3c0.4,0,0.8,0,1.2,0c0.6,0.3,1.4,0.4,2.3,0.6c1.4,0.3,2.7,0.6,3.1,1.2l0,0l1.9,0
	c0.1,0.1,0.2,0.2,0.3,0.3c0.3,0,0.5,0,0.7,0c7.6,2.7,19.3,5.5,28.4,6.8c2.1,0.4,4.2,0.6,6,0.9l0.3,0.4l0.1,0c0.6,0,1.3,0.1,1.9,0.1
	c0,0.1,0.1,0.1,0.1,0.2c3.6,0.2,7,0.9,10.9,0.8c0.5,0,1.1-0.1,1.6,0c0,0,0,0,0,0c0.1,0,0.3,0,0.4,0c1.9,0.5,3.9,0.4,6,0.3
	c0-1.4-0.1-2.7,0-4c0.4-3.2,0.8-6.4,1.3-9.9c8.7,1.1,17.4,1.7,26.5,1.2c2.7-1.2,3.1-2.7,4.1-4.2c1-1.5,2.6-2.9,3.7-4.4
	c5.3-0.8,10.3-1.8,14.7-3.1c6.8-2.1,11.9-5.2,14.8-8.5c0.9-1,0.6-2.2,3.4-3.1c4.3,0,8.3-0.5,12.3-1.2c0.3-0.1,0.7-0.1,1.1-0.1
	c0,0.3,0,0.6,0,0.9c0,1.1,0,2.1,0,3.1c-0.1,1.2-0.1,2.5,1.6,3.7l0,0h1.6c0.1,0.1,0.3,0.2,0.4,0.3c1.2,0,2.5,0,3.7,0l1.6,0.6v3.9h2.1
	c0,0.1,0,0.2,0,0.3c0.5,0,0.9,0,1.4,0l0.5,0.4v77.2v0.1v0.3h-2.7l1.7,0.8v1.4l-1.4,0l0,0c-0.1,0.1-0.3,0.3-0.5,0.4
	c-0.4,0.3-0.8,0.7-1,1c0,0,0,0.1-0.1,0.1c-0.1,0.2-0.3,0.4,0,0.6c0.2,0.1,0.5,0.2,1,0.2v1H940l0,0c-0.1,0.2-0.2,0.4-0.4,0.5
	c-0.3,0.5-0.7,0.9-0.9,1.4l0,0c-0.1,0.2-0.2,0.4,0.1,0.5c0.2,0.1,0.5,0.1,0.9,0.1v0.7h-1.5l0,0c-0.1,0.1-0.1,0.2-0.2,0.2
	c-0.3,0.3-0.7,0.7,0.8,0.9v1.4h-4.9v1.9c-0.3,0-0.5,0-0.8,0c-1.6,0-3.1,0-4.3,0.4h-1.6l0,0c-0.1,0.1-0.1,0.2-0.2,0.2
	c-0.3,0.3-0.7,0.7,0.8,0.9v0.7v0.1v1h-2.7l1.7,0.8v0.7h-1.8l0,0c0,0.1-0.1,0.2-0.1,0.4c-0.2,0.4-0.4,0.8,1,1.1v1v0.1v0.7h-2.7
	l1.7,0.8v0.7h-1.8l0,0c0,0.1-0.1,0.2-0.1,0.4c-0.2,0.4-0.4,0.8,1,1.1v1v0.1v0.3h-1.5l0,0c-0.1,0.1-0.1,0.2-0.2,0.2
	c-0.3,0.3-0.7,0.7,0.8,0.9v1v0.1v1v0.1v1l2.2-0.6h3.9c0.1,0,0.2,0.1,0.3,0.1c0.3,0.1,0.6,0.2,0.9,0.2c0.9,0,1.8,0,2.7,0
	c0.3,0,0.6,0,0.9,0v7.7c-0.1,0-0.2,0.1-0.3,0.1c-0.3,0.1-0.6,0.2-0.6,0.4c-0.1,0.9-0.1,1.8,0,2.7c0,0.3,0,0.6,0,0.9v0h2.1
	c0.2,0,0.4,0,0.7,0c0.4,0,0.7,0,0.9,0.1c0.2,0.1,0.2,0.1,0.3,0.3v0.7h8.9v10.9l3.1,1l0.1,0h3.8l0.1,0l1.4-0.5v-11.4
	c0.1-0.1,0.2-0.1,0.4-0.2h8.6l2.3-0.5c0.1,0,0.1,0,0.2,0c0.1,0,0.2-0.1,0.3-0.1l1-0.2v-0.2c0,0,0,0,0,0c0-0.5,0-1,0-1.6
	c0-0.3,0.1-0.6,0-0.8v-1.9c0.3-0.5,0.1-0.9,0-1.4v-0.5c0.1-1.8,0-3.5,0-5.4h9.2l0,0c0.6-0.2,1.1-0.4,1.6-0.5c0.2,0,0.3,0,0.5,0
	c0-0.1,0-0.1,0-0.2c0.2-0.1,0.3-0.1,0.4-0.2l0,0l0,0c-0.1-0.3-0.1-0.7-0.2-1c-0.1-0.6-0.2-1.2-0.5-1.7c-0.2-0.3-0.3-0.6-0.4-0.9
	c-0.2-0.5-0.3-1-0.8-1.3c-0.5-0.4-0.5-0.9-0.5-1.3c0-0.4,0-0.8-0.4-1.2c-0.6-0.4-0.6-0.9-0.6-1.3c0-0.4,0-0.8-0.4-1.1
	c-0.4-0.3-0.4-0.7-0.5-1.1c-0.1-0.4-0.1-0.8-0.7-1.2c-0.8-0.5-0.7-0.9-0.6-1.4c0.1-0.4,0.1-0.7-0.3-1.1c-0.3-0.2-0.6-0.4-0.9-0.6
	c-0.9-0.7-1.8-1.4-4.6-1.2c-0.8-1.4-1.6-1.7-5.3-1.9c0-0.2,0-0.3,0-0.5c0.1-0.5,0.1-0.9-0.1-1.4c-0.2-0.4-0.6-0.7-1-1.1
	c-0.3-0.3-0.7-0.6-0.9-0.9c-0.2-0.2-0.1-0.4-0.1-0.7c0.1-0.4,0.1-0.9-1-1.2c0.5-0.9-0.3-1.7-1-2.5c-0.7-0.8-1.4-1.5-1-2.3l0,0l0,0
	c-1.3-0.9-1.2-1.9-1-2.8c0-0.3,0.1-0.6,0.1-0.9c0-20.1,0-40.4,0-60.2l0-14.1h9.5c0,0,0.1,0,0.1,0c0.1,0,0.1,0.1,0.1,0.1
	c0,16.1,0,32.2,0,48.4v0h2h0.2h1.8c0,0,0.1,0.1,0.1,0.1c0,0.1,0,0.1,0,0.2c0.1,0,0.1,0,0.2,0c0.8,1.1,0.8,2.2,0.7,3.2
	c0,0.6-0.1,1.2,0,1.8l0,0l0,0l2.9,1.1v5.4h2v0.6l1.5,0.2l3.5,0.4v0.3v0.1v0.7l4.8,0.1v0.9l0,0l3.7,1.3l0.1,0
	c0.9-0.2,1.4-0.5,1.8-0.8c0.1,0,0.3,0,0.4,0c0.3-0.2,0.2-0.5,0.2-0.8c0.1-0.1,0.1-0.2,0.2-0.3c0.1-0.1,0.1-0.2,0.2-0.3h7.2
	c0.5,0.3,1,0.6,1.4,0.9l0,0l0,0c2,0.4,3.1,0,4.1-0.4l0,0V824c0.6-0.1,1.3-0.2,1.9-0.3c0.3,0,0.6,0,0.9,0v11.5l3.9,0.2v1.6l0.1,0
	c6,0.7,12.1,0.6,18,0.5c2.2,0,4.4-0.1,6.6,0c0,0,0,0,0,0c0.7,0,1.5-0.1,2.3-0.2c1.1-0.1,2.2-0.3,3.2-0.1c5.4,0.7,11.1,0.5,16.1,0.3
	c2.7-0.1,5.4-0.2,8-0.2c2.2,0,4.4-0.1,6.7-0.1l0.1,0v-1.3l4.1-1v-21.4l5.8-0.4v28.6h2c0,0.1,0.1,0.1,0.1,0.2c0,0.1,0,0.1,0,0.2
	c0,0,0.1,0,0.1,0c0.1,0.1,0.1,0.2,0.2,0.3c0.4,0.6,0.8,1.2,0.6,1.8c-0.2,0.6-0.1,1.2-0.1,1.8c0,0.3,0,0.6,0,0.9v0l0.1,0
	c0.5,0.1,1,0.2,1.5,0.3c1.1,0.2,2.3,0.5,3.5,0.5c3.2,0.1,6.4,0.1,9.6,0c1.3,0,2.6,0,3.8,0h0l0,0c1.6-0.5,3.9-0.6,6.8-0.3
	c1.1,0.1,2.2,0.2,3.4,0.2c0.7,0,1.4,0,2.2,0.1c0.1,0.6,0.1,1.1,0.1,1.7c0,0.5,0,1,0,1.5l0,0h2v0.6l0.1,0c0.3,0,0.6,0.1,0.8,0.1
	c0.7,0.1,1.5,0.2,2.2,0.3c0.2,0,0.3,0.1,0.5,0.2c0.1,0,0.2,0.1,0.3,0.1v2.3l0.1,0c2.8,0.6,5.7,0.6,8.6,0.6c1.1,0,2.3,0,3.4,0v0v0.7
	h2v0.3v0.1v0.7h2c-0.4,0.5,0.4,0.9,1.1,1.2c0.3,0.2,0.7,0.3,0.9,0.5c1.1,0.8,2.8,1.4,5.1,1.7c0,0.9,0,1.7,0,2.6c0,2.3,0,4.6,0,6.9
	c0,0.8,0,1.5,1.4,2.2l0,0l0,0c1.5,0.1,3.3,0.2,4.7-0.5l0,0v-11.1l3.1-0.7v-7.9l2-0.7v-3.4l3-0.7v-0.2c0.6,0,1.3,0,1.9,0
	c0-0.2,0-0.4,0-0.6c0-0.1,0-0.1,0.1-0.2c0.2-0.4,0.4-0.8-1-1.1v-0.4c0.2-0.1,0.4-0.2,0.9-0.4c0-0.2,0-0.4,0-0.6c0,0,0.1,0,0.1-0.1
	c0.1-1.7,0.1-3.3,0-5c0-0.1-0.3-0.2-0.6-0.2c-0.1,0-0.2,0-0.2-0.1c0.3-0.1,0.5-0.2,0.8-0.4c0-0.3,0-0.6,0-0.8
	c0.1-0.1,0.1-0.2,0.1-0.3c0-0.1-0.1-0.2-0.1-0.3c0,0,0-0.1,0-0.1c-0.1-0.1-0.3-0.1-0.4-0.2c0,0-0.1,0-0.1-0.1
	c-0.1,0-0.2-0.1-0.4-0.2v-0.3c0.9,0,1.4,0,1.9,0c0-0.5,0-1,0-1.5c0-0.1,0-0.3,0-0.5c0,0,0.1-0.1,0.1-0.2h0.8
	c0.5,0.1,0.8,0.2,1.1,0.3c0.8,0,1.7,0,2.5,0c0.1,0,0.2-0.1,0.3-0.1c0.1,0,0.2-0.1,0.2-0.2c0-11,0-22.1,0-33.1
	c-0.8,0-1.1-0.2-1.1-0.3h0.1c0.8,0,1.7,0,2.5,0h0.1l0,0c0.8-0.3,1.6-0.6,2.6-1l0,0v-9.3l2.9-0.1v-0.7c1.1-0.5,1.1-1,1-1.6
	c0-0.1,0-0.2,0-0.3c0-8,0-16,0-24.1v-6l1.4-0.2l0.3,0.8l1.1-0.4v19.6l0.1,0c0.4,0.1,0.7,0.3,1.1,0.4c0.7,0.3,1.5,0.6,2.9,0.5v37.1
	h2.1c0,0.1,0,0.2,0,0.3c1.1,0,2,0,3,0c1,0.2,2,0.1,3,0c0.5,0,1.1-0.1,1.6-0.1c0,0,0,0,0.1,0c0.3,0,0.6-0.1,0.9-0.1
	c0.3-0.1,0.5-0.1,0.7-0.1c2.4,0.1,4.8,0,7.1-0.2c1.9-0.1,3.9-0.3,5.9-0.2c0.4,0,0.9,0,1.3,0c2,0,3.8,0,5.4,0.6
	c0.4,0.1,1,0.1,1.6,0.2c0.3,0,0.6,0,0.8,0l2.3,0.9v3.8l0.1,0c0.4,0.1,0.9,0.2,1.3,0.4c1.4,0.4,2.8,0.8,4.8,0.9l1.9,0.4
	c0.2,0.8,0.8,1.1,3.1,1.1l1.9,0.4c0.5,0.9,1.5,1.3,4,1.5l0,0h0.1l0.2,0l0,0h0.7v0.7h2.1l2.9,1.4v9.3h4.7c0.1,0,0.3,0,0.5,0.1
	c0,0,0-0.1,0-0.1h0.2v-7.7c1.1-0.1,1.7,0.1,2.3,0.4c0.7,0.2,1.3,0.5,2.5,0.3l0.9,0c0,0.1,0,0.1,0.1,0.2c0,0.2,0.1,0.4,0.3,0.5
	c0.7,0.3,1.4,0.6,2.2,0.9c0.3,0.1,0.6,0.2,0.8,0.3l0,0h2.2l0,0l1.5-0.6V821l2-0.2v-0.3c0.7,0,1.3,0,1.9,0c1.4,0,1-0.4,1-0.7
	c0-1.8,0-3.7,0-5.5c0-6-0.1-12,0.1-17.9c0-1-1.2-2-1.1-3c0.1-1,0.2-2.1,0-3.1c-0.1-0.5,0.4-0.8,0.9-1.2c0.2,0.7,0.1,1.4,0.1,2
	c-0.1,1.3-0.2,2.7,1.3,4l0,0l0,0l2.8,0.7v37.8h1.9h0.2h2.8v0.5l0,0c0,0,0.1,0,0.1,0c0.1,0,0.2,0.1,0.3,0.1c8.5,0,16.9,0,25.7,0h3.1
	v-0.7h13.8v0.5l0,0c0,0,0.1,0,0.1,0c0.1,0,0.2,0.1,0.3,0.1c4.6,0,9.2,0,14.1,0h1.7v-0.7h1.8h0.2h1.7l0,0c0.3-0.5,0.3-1.1,0.2-1.7
	c0-0.3,0-0.5,0-0.8c0-0.5,0-1.1,0-1.6c0-0.1,0-0.2,0-0.4c0.6,0,1.2,0,1.9,0c0.6,0,1.2,0,1.9,0v1.1h2.2V829c0.6,0,1.2,0,1.9,0
	c0.4-0.1,0.8-0.3,1.2-0.4c1.9,0,3.8,0,5.6,0v0.3l0.1,0l4.8,0.1v1.3l0.1,0c0.9,0.1,1.5,0.1,2.1,0c0.5-0.1,0.9-0.3,1.1-0.7
	c0.3-0.4,0.5-0.8,0.7-1.2c0,0,0,0,0,0c0.7-0.1,1.4-0.2,2.2-0.3c0-5.4,0-10.9,0-16.3c0-0.1,0-0.2,0-0.3h6.6l1.5-0.6l0,0v-42.5h3.8
	v11.9l5.9,0.8v13.3l0.1,0c2,0.2,3.9,0.4,5.9,0.6l0.4,0.6h22.6l0.7-0.7c1.1,0,2.3,0,3.5,0c3.2,0,6.5,0,9.8,0.5v38.9l0,0
	c2.3,0.7,2.4,0.8,4.3,0.3h0.9c0.4,0.1,0.7,0.2,1.1,0.3c0.6,0,1.2,0,1.9,0c0,3.7,0,7.4,0,11v1.2v0.1v0.7l14.8,0
	c1.4,0.6,1.3,1.3,1.2,2.1c-0.1,0.5-0.1,0.9,0.2,1.4l0,0l2.1,1.3l4.4-0.3c0.1,0,0.2,0,0.4,0.1c0.8,0.2,2.3,0.5,3.6-0.1l5.2,0.4v10.5
	l0.8-0.2l2.6,1.6l1.3-1.2l0.7,0.2v-11.4c2,0.5,3.8,0.4,5.8-0.1c1.8,0.6,3.5,0.6,4.9,0l3.7,0.5l1.4-0.8c0,0,0,0,0,0c0,0,0,0,0,0
	l1.1-0.7v-2.9l1.6-0.5h11.4v-12.9c0,0,0,0,0,0c0.1-0.1,0.2-0.1,0.3-0.1c0.5,0,1,0,1.5,0c1.3,0,2.7,0,4,0c0.2-0.3-0.5-0.7,1-0.7
	c0-18.1,0-36.2,0-54.2c-0.6,0-1.2,0-1.9,0v-0.3h0.1v-22.7c7.2,0,14.4,0,21.8,0c2.1-2.2,0.2-4.4,1.1-6.6c0.3-0.1,0.8-0.3,1.2-0.4
	c4.6,0,9,0,13.7,0c0,8.6,0,17.1,0,25.7c0,0.1,0.1,0.1,0.2,0.2c0.1,0.1,0.2,0.1,0.3,0.1c3.5,0,7,0,10.5,0c0-5.6,0.2-11.2-0.1-16.9
	c-0.1-2.9,0.9-5.8,1.3-8.7c2.1-0.2,4-0.4,6-0.5c2.3-0.1,4.6,0,7,0c2.3,0,4.5,0,6.8,0c0-0.5,0-0.8,0-1.1c0-1.8,0-3.7,0-5.4
	c0.7-0.3,1.1-0.4,1.6-0.6c1.7,0.2,3.9-0.3,5.4,0.6c0,0.9,0,2,0,2.9c0.5,0.2,0.9,0.3,1.4,0.5c5.7,0,11.4,0,17.2,0v24.3h37.7v-22.8
	c2.6,0.5,5.2,1,7.8,1.5c11,2,21.7,4.4,33.3,6c1.7,0.2,3.1,0.8,5.2,0.7c1.2,0.9,3.7,0.6,5.5,0.9c0.1,0,0,0.1,0,0.2
	c2.6,0.2,4.5,0.9,7,1.1c0.7,0,1.5-0.1,2,0c2.8,0.6,6.1,0.8,9,1.3c6.7,1.1,13.4,2,20.4,2.8c2,0.2,4,0.5,6.3,0.3
	c0.6,0.3,1.2,0.6,1.7,0.8c1.6,0,2.9,0,3.6,0c1.4,0.3,2.3,0.5,3.3,0.7c4.9,1.1,10.6,1.5,16,2.2c3.1,0.4,6.6,0.4,9.5,0.9
	c3.9,0.7,8.1,0.8,12.1,1.3c4.7,0.6,9.6,0.9,14.4,1.4c3.1,0.3,6.3,0.7,9.5,0.8c3.3,0.1,6.5,0.4,9.7,0.7c2.4,0.3,5,0.3,7.5,0.4
	c1,0,2,0,3,0c1,0.1,2.5-0.3,3,0.4c1.3,0,2.7,0,4,0c0.8,0.1,1.9-0.2,2,0.4c3.6,0,7.1,0.5,10.8,0.4c1.2,0,3.2,0.1,4.2,0.7
	c3.6,0,7.3,0,10.9,0c3.5,0.1,7,0.3,10.5,0.3c4.8,0.1,9.6,0.1,14.4,0c4.7-0.1,9.3-0.2,14-0.4c4.3-0.1,8.7-0.2,13-0.4
	c0.2,0,0.4,0,0.5,0c2-0.7,4.6-0.1,6.5-0.4c2.4-0.4,4.7-0.3,7.1-0.3c0.1-0.1,0.2-0.3,0.4-0.3c4.4-0.5,9-0.5,13.5-0.8
	c1.9-0.1,3.8-0.4,5.7-0.6h1.5v-0.1c1.4-0.1,2.8-0.2,4.3-0.1c4.5-1,9.8-1,14.7-1.5c0.1-0.6,1.2-0.3,2-0.4c1,0,2,0,3,0
	c3.6-0.3,7.1-0.7,10.7-1.1c4.4-0.5,8.9-0.9,13.4-1.3c3.7-0.4,7.3-0.8,11-1.3c1.2-0.4,2.6-0.4,4-0.4c0-0.2,0-0.4,0-0.7
	c0.8,0,1.4,0,2,0c2.3-0.1,4.7-0.2,7-0.4c0-0.2,0-0.4,0-0.7c7.5-0.8,14.8-1.8,22.1-2.9c7.3-1.1,14.7-2,21.8-3.3
	c7.1-1.2,14.5-2.2,21.6-3.5c7-1.3,14.2-2.5,21.1-3.9c7-1.4,13.7-2.9,20.9-4.5v25.4h37.7v-19.5c3,0,5.9,0,8.8,0c0-1.8,0-3.6,0-5.3
	c2.1-0.5,2.1-0.5,5.6-0.5c0.5,0.2,0.9,0.3,1.6,0.6c0,1,0,2,0,3c3.7,0.3,7.6-0.3,11.1,0.7c0,0.4,0,0.8,0,1.2c2.3,0,4.4,0,6.7,0
	c0,0.8,0,1.6,0,2.3c0.7,0.3,1.1,0.4,1.5,0.6c7.6,0,15,0,22.5,0c0-6.3,0-12.6,0-18.9H2163z M2043.8,745.5c-2.3,0.5-4.4,1-6.8,1.5
	c0-0.7,0-1.3,0-1.9c2.2,0,4.4,0,6.6,0C2043.7,745.2,2043.7,745.3,2043.8,745.5z M2033.7,745c0,0.8,0,1.6,0,2.4
	c-0.6,0.2-1.3,0.5-2.1,0.8c-2.1,0.2-3.9,0.3-5.5,0.4c0-1.3,0-2.5,0-3.6C2028.7,745,2031.1,745,2033.7,745z M2021.6,745.1
	c0,1.6,0,3.2,0,4.7c-2.7,0.1-4.6,1.2-7.9,0.7c0-1.5-0.1-3.1,0.1-4.7c0-0.2,0.8-0.5,1.3-0.8C2017.4,745.1,2019.6,744.9,2021.6,745.1z
	 M2005,754.3c0.4,0.1,1,0.3,1.4,0.4c1.3-0.1,2.6-0.3,4.2-0.5c0,2.2,0,4.3,0,6.5c-2.2-1.7-4.2-3.3-6-4.8c-0.9-0.2-1.4-0.2-1.7-0.3
	C2002.6,754.8,2003.1,754.4,2005,754.3z M2003,752.9c0-2.7,0-5.3,0-7.9c2.4,0,4.9,0,7.5,0c0,2.1,0,4.3,0,6.5
	C2008.2,752,2005.8,752.4,2003,752.9z M1897.7,745.5c0,5.9,0,11.9,0,18.1c-2.8,0.1-5.3,1.3-8.7,0.2c0-6.2,0-12.3,0-18.4
	c0.5-0.2,0.9-0.3,1.2-0.4c2.1,0,4.3,0,6.2,0C1896.9,745.2,1897.2,745.3,1897.7,745.5z M1885.6,745.1c0,6.4,0,12.8,0,19.2
	c-2.6,0-5,0-7.7,0c0-6.5,0-12.9,0-19.2C1880.7,745.1,1883.2,745.1,1885.6,745.1z M1852.6,744.8c0,6.4,0,12.7,0,19.3
	c-1.7-0.3-3.6,0.3-4.8-0.5c-0.9,0-1.9,0-2.8,0c-0.4,0-0.8-0.2-1.2-0.4c-0.1,0-0.3,0-0.4,0v-18.8c0.7,0,1.4-0.1,2.1-0.1
	C1847.9,744.2,1850.4,744.6,1852.6,744.8z M1806.7,745.5c0,4.7,0,9.5,0,14.2c-0.3-0.1-0.5-0.2-0.8-0.3c-0.2,0.3-0.4,0.7-0.5,0.8
	c-2.5-0.3-4.4-0.5-6.4-0.7V745c2.3,0,4.4,0,6.4,0C1805.8,745.2,1806.2,745.3,1806.7,745.5z M1794.7,745c0,4.6,0,9.1,0,13.7
	c-4.7,0-4.7,0-7.8-0.9c0-4.1,0-8.2,0-12.4C1789.3,744.6,1792.1,745.1,1794.7,745z M1749.5,745.1c0,2.6,0,5.1,0,7.8
	c-2.6-0.2-5-0.4-7.3-0.6V745c0.4-0.2,0.7-0.2,0.9-0.3c1.8,0,3.6,0,5.3,0C1748.9,744.8,1749.2,745,1749.5,745.1z M1738.7,745.5
	c0,1.8,0,3.6,0,5.4c-1.6,0-3,0-4.2,0c-1.7-0.3-3.2-0.6-4.7-0.9c0.5-1.7,0.9-3.3,1.4-4.9c2.2,0,4.4,0,6.3,0
	C1738,745.2,1738.3,745.4,1738.7,745.5z M1726.6,745c0,1.4,0,2.7,0,3.9c-1.3-0.1-2.4-0.3-3.6-0.4c-0.2-0.2-0.4-0.4-0.4-0.4
	c-1.6-0.2-2.7-0.4-3.7-0.6c0-0.9,0-1.7,0-2.5C1721.8,745,1724.2,745,1726.6,745z M1658.6,749.4c-3.3,0.4-4.6-0.9-7.3-1.1
	c-2.3-0.2-4.2-1-6.3-1.4c-2.4-0.5-4.3-1.1-5.6-2.3c3.7,0.3,7-0.3,10,0.4c0.4,0.1,1.5,0.1,1.9,0c1.9-0.6,4.1-0.2,5.9-0.3
	c0.5,0.2,0.9,0.3,1.4,0.5C1658.6,746.6,1658.6,748,1658.6,749.4z M1661.9,749.3c0-1.5,0-2.9,0-4.2c0.5-0.2,0.8-0.3,1.3-0.5
	c1.3,0,2.8,0,4.4,0c0.7,1-0.7,1.7-1.8,2.4c-1.1,0.7-1.8,1.6-2.6,2.4C1662.7,749.4,1662.3,749.4,1661.9,749.3z M1670.7,751.6
	c-3,0.3-3.8-0.8-6.5-0.8c2.7-1.3,3.3-2.8,6.5-4.1C1670.7,748.5,1670.7,750,1670.7,751.6z M1674.5,750.6c-0.6,0-0.9,0-1.5,0
	c0-1.7,0-3.4,0-5.1c0.7-0.3,1.4-0.5,2.2-0.8c1.4,0,2.8,0,5.1,0C1678.9,746.8,1676.1,748.7,1674.5,750.6z M1681.5,753.7
	c-2.2-0.4-4-0.7-6-1c2.7-2.6,3-3.8,6-4.6C1681.5,749.9,1681.5,751.7,1681.5,753.7z M1684.9,752.3c0-2.4,0-4.9,0-7.3
	c2.9-1.1,5.3,0.1,8.5,0c-2.4,1.4-3.2,2.6-4,3.9c-0.8,1.2-2.6,2.3-4,3.4C1685.3,752.4,1685.1,752.3,1684.9,752.3z M1693.6,755.7
	c-1.3,0-2.4,0-2.9,0c-1.5-0.5-2.7-0.9-3.8-1.3c0.6-1,0.7-2.1,2-2.8c1.5-0.8,0.8-2.2,4.7-2.7C1693.6,751.3,1693.6,753.5,1693.6,755.7
	z M1696,755c0-3.2,0-6,0-8.9c3.3,0,5.4,0.7,7.8,1.2c0,0.3,0.3,0.7,0,0.9C1700.7,750.3,1699.1,752.5,1696,755z M1704.6,757.2
	c-3,0.2-5.2-0.2-7-1c2.1-1.3,3.5-2.7,5.2-3.9c0.7-0.3,1.4-0.5,1.7-0.6C1704.6,753.4,1704.6,755.3,1704.6,757.2z M1708,755.3
	c0-2.3,0-4.7,0-7c3.1-0.2,4.9,0.6,7.3,1.4c-2,1.9-4,3.7-6,5.6C1708.9,755.4,1708.4,755.3,1708,755.3z M1715.6,759.2
	c-1.9-0.2-3.7-0.3-6.1-0.6c1-2,4-3.6,6.1-5.4C1715.6,755.1,1715.6,757.1,1715.6,759.2z M1715.5,747c-2.6-0.6-4.7-1.1-6.9-1.6
	c0-0.1,0.1-0.2,0.1-0.4c2.3-0.1,4.6-0.1,7.1,0C1715.8,745.7,1715.6,746.3,1715.5,747z M1719.9,757.7l-0.2,0.1
	c-0.1,0-0.4,0.1-0.6,0.1c-0.7-2.7-0.5-6.5,0.3-7.8c2.3,0.3,4.7,0.5,7.4,0.8c0,0.6,0.6,1.3-0.1,1.5c-1.8,0.8-1.7,1.8-3.6,2.6
	C1721.5,755.8,1720.9,756.8,1719.9,757.7z M1727.6,761c-1.2,0-2.2,0-3.2,0c0.1-0.1,0.1-0.2,0.2-0.3c-1-0.2-2.1-0.4-3.1-0.6
	c0.5-0.7,0.9-1.3,1.3-1.9l4.6-3.1c0.1,0,0.2,0.1,0.2,0.1C1727.6,757.1,1727.6,759,1727.6,761z M1728.3,760.1
	c0.7-0.3,1.1-0.5,1.5-0.7c-0.1-1.3-0.2-2.7-0.3-4c0-0.1-0.4-0.2-0.6-0.2c1.2-0.6,1-1.2,0.9-1.9l1.4-1c2.4-0.1,4.7,0.1,6.6,1
	c0,0.3,0,0.6,0,0.9l-8.8,5.9C1728.8,760.2,1728.5,760.1,1728.3,760.1z M1739.2,762c-0.2,0.2-0.4,0.4-0.6,0.6
	c-2.6-0.2-4.8-0.4-7.2-0.7c0.8-0.9,1.3-1.6,2.4-2.4c0.9-0.7,1.9-1.3,2.5-2.1l2.8-1.9V762z M1749.6,764.2c-2.1-0.9-5.8-0.1-6.9-1.5
	c1.1-0.7,2.1-1.4,3.4-2.1c0.6-0.3,0.7-0.8,1.1-1.2l0.8-0.5c0.4-0.2,0.9-0.3,1.7-0.4C1749.6,760.5,1749.6,762.2,1749.6,764.2z
	 M1749.6,755.6l-7.3,4.9v-7l0.1-0.1c2.1,0.4,4.7,0.9,7.4,1.4C1749.8,755.1,1749.7,755.4,1749.6,755.6z M1752.9,762
	c0-2.1,0-4.1,0-6.2c3.2-0.2,5.8,0.1,8.3,1.1c-2.3,1.8-4.5,3.5-6.8,5.1C1754.2,762.1,1753.5,762,1752.9,762z M1761.6,764.9
	c-1.2,0.6-2.8,0.5-4,0.5c-1.2-0.4-2-0.6-3.2-1c1.8-1.4,3.3-2.6,5-3.8c0.3-0.2,1.2-0.3,2.2-0.5
	C1761.6,761.8,1761.6,763.4,1761.6,764.9z M1761.7,754.1c-0.4,0.1-0.9,0.3-1.7,0.6c-2.6-0.6-5-1.1-7-1.6c0-2.8,0-5.5,0-8.1
	c0.5-0.2,0.9-0.3,1.2-0.5c2.1,0,4.2,0,6.2,0c0.5,0.2,0.8,0.3,1.3,0.5C1761.7,748.1,1761.7,751.1,1761.7,754.1z M1772.6,766.6
	c-2.1-0.2-4-0.4-5.9-0.6c-0.2-1.8,3.4-2.9,4.4-4.3c0.7,0,1,0.1,1.4,0.1C1772.6,763.3,1772.6,764.9,1772.6,766.6z M1772.8,758.5
	c-2.5,1.8-5.1,3.7-7.6,5.5c-0.4,0-0.8,0-1.2-0.1c0-2.1,0-4.1,0-6.3c3.4-0.8,5.9,0.4,8.7,0.4C1772.7,758.2,1772.9,758.4,1772.8,758.5
	z M1772.8,746.9c0,2.9,0,5.8,0,8.7c-0.2-0.1-0.4-0.1-0.6-0.2c-0.3,0.3-0.6,0.6-0.9,0.8c-2.8-0.5-5.2-0.9-7.4-1.2c0-3.4,0-6.6,0-9.9
	c0.5-0.2,0.8-0.3,1.3-0.5c2,0,4.1,0,6.1,0c0.5,0.3,1.3,0.6,1.4,0.9C1773,746,1772.8,746.4,1772.8,746.9z M1775.8,764.5
	c0-1.9,0-3.6,0-5.2c0-0.2,0.1-0.3,0.3-0.6c2.3,0.3,4.4,0.7,6.8,1c-0.1,0.2-0.2,0.6-0.6,0.9c-1.4,1.1-2.9,2.3-4.5,3.4
	C1777.5,764.1,1776.8,764.2,1775.8,764.5z M1783.6,767.8c-2.1-0.2-3.8-0.3-5.9-0.5c0.3-1.7,3.5-4.1,5.9-4.4
	C1783.6,764.4,1783.6,766,1783.6,767.8z M1783.7,757.6c-2.9,0.1-5.3-0.2-7.7-0.8c0-4,0-7.9,0-11.8c2.7,0,5.3,0,7.7,0
	C1783.7,749.3,1783.7,753.4,1783.7,757.6z M1786.9,766.1c0-1.9,0-3.8,0-5.9c2.8,0.2,5.3,0.4,8.1,0.5c-1.2,2-4.8,3.6-6.5,5.4
	C1787.8,766.1,1787.4,766.1,1786.9,766.1z M1795.6,768.7c-2.6,0.1-4.9,0.1-7-0.6c2.1-1.4,3.7-2.9,6.1-4.2c0.3,0,0.6,0.1,0.9,0.1
	C1795.6,765.6,1795.6,767.1,1795.6,768.7z M1799.4,767.3c-0.2,0-0.3,0-0.5,0v-5.7c2.2-0.5,3.4-0.3,7,0.7l-3.7,2.8
	C1801.1,765.8,1800.1,766.5,1799.4,767.3z M1806.8,770c-2.3-0.3-4.1-0.4-6.3-0.7c0.4-0.4,0.8-0.8,1.2-1.2l2.5-1.9
	c0.7-0.4,1.6-0.8,2.6-1.2C1806.8,766.9,1806.8,768.3,1806.8,770z M1809.9,745c2.9,0,5.3,0,7.7,0c0,5.5,0,10.9,0,16.4
	c-2.8-0.3-5.3-0.6-7.7-0.8C1809.9,755.3,1809.9,750.2,1809.9,745z M1809.9,762.4c2.1,0.2,4,0.4,5.8,0.6c0,0.4,0,0.7,0,1l-2.7,2
	c-1,0.6-2,1.3-3.1,2C1809.9,765.9,1809.9,764.2,1809.9,762.4z M1817.6,770.6c-2.3,0-4.4,0-6.4,0c-0.4-0.2-0.8-0.3-1.2-0.5l0.8,0.1
	l3.4-2.6c0.8-0.5,1.5-0.9,1.9-1.5l0.1-0.1c0.6,0,0.9,0.1,1.4,0.1C1817.6,767.7,1817.6,769.1,1817.6,770.6z M1820.3,768.7v-5.5
	c3.1-0.2,5.8,0.1,8.5,0.5c0,0,0,0,0,0l-7.6,5C1820.9,768.7,1820.6,768.7,1820.3,768.7z M1829.3,771.4l-0.3,0.2l0.3,0.1v0
	c-2.3,0-4.2,0-5.7,0c-1.1-0.4-2-0.6-2.5-0.8c0-0.1,0-0.1,0-0.1l0.2,0l2-1.3c0.1-0.1,0.2-0.1,0.3-0.2l5.6-3.7V771.4z M1829.3,762.4
	c-0.2,0-0.4,0-0.6,0c-1.7,0-3.3,0-5,0c-0.8,0-1.7,0-2.5,0c-0.3-0.1-0.6-0.2-1-0.4v-14.9c0.1-0.2,0.3-0.4,0.4-0.6
	c-0.1,0-0.3-0.1-0.4-0.1v-1.2c0.3-0.2,0.6-0.4,0.8-0.6c2.1-0.1,4.1-0.3,6.2-0.4c0.6,0.1,1.3,0.3,2,0.4V762.4z M1832,764
	c3-0.4,5.3,0.2,8,0.4c0,0,0,0.1,0,0.1l-8,5.2V764z M1840.7,772c-2.3,0-4.4,0-5.3,0c-1.5-0.3-2.2-0.4-2.7-0.5c0,0,0.1-0.1,0.1-0.1
	l7-4.6c0,0,0,0,0,0c0.3,0.1,0.8,0.3,0.9,0.4V772z M1840.7,763.2c-1.3,0-2.6,0-3.9,0c-0.5,0.1-1,0.3-2,0.6c0-0.5,0-0.7,0-1
	c-0.9-0.1-2.2,0.2-2.8-0.2v-17.9c2.1-0.3,4.3-0.1,6.4-0.1c0.8,0,1.6,0,2.3-0.1V763.2z M1844.7,772.8c0.1-0.3,0.2-0.6,0.5-0.9
	l0.2-0.2C1845.1,772.1,1844.9,772.5,1844.7,772.8z M1843.3,770.8v-6.1c1.5,0,2.8,0,3.7,0c1.5,0.4,2.6,0.7,4,1c-0.4,0.2-1,0.3-2,1.4
	L1843.3,770.8z M1852.7,772.1c0,0.2-0.8,0.5-1.2,0.7c-1.7,0-3.3,0-3.2-2.8c0.7-0.3,1.4-0.7,1.5-1.2l0.9-0.6c0.6-0.1,1.3-0.3,2-0.5
	C1852.8,769.4,1852.8,770.7,1852.7,772.1z M1855.8,765.4c1.8,0,3.3,0,4.6,0c0.6,0.2,1.1,0.5,1.5,0.6c-2,1.5-3.9,2.8-5.7,4.2
	c-0.5,0-0.8,0-1.5-0.1C1855.3,768.6,1853.8,767,1855.8,765.4z M1863.6,772.7c-0.3,0.1-0.7,0.3-1.2,0.4c-1.6,0-3.4,0-5.2,0
	c0.2-0.1,0.3-0.1,0.5-0.2c-0.8-0.1-1.6-0.2-2-0.3c2.4-1.7,4.6-3.2,6.7-4.7c0.3,0,0.6,0,1.2,0
	C1863.6,769.6,1863.6,771.2,1863.6,772.7z M1863.7,763.8c-0.4,0.1-0.7,0.3-1.3,0.5c-1.3,0-2.7,0-4.2,0c-1-0.2-2.1-0.5-3.3-0.7
	c0-6.1,0-12.1,0-18c0.5-0.2,0.9-0.3,1.2-0.4c2.1,0,4.3,0,6.2,0c0.5,0.2,0.8,0.3,1.3,0.5C1863.7,751.6,1863.7,757.7,1863.7,763.8z
	 M1868.3,771c-0.1,0.2-1.4,0.3-2.4,0.5c0-1.9,0-3.5,0-5.1c0.4-0.1,0.7-0.3,1.2-0.5c2.3,0,4.4,0,6.6,0c0,0.6,0,1-0.6,1.6
	C1871.6,768.7,1868.8,769.6,1868.3,771z M1874.5,773.2c-2,0-3.8,0-5.6,0c1.4-1.7,3.6-3.2,5.6-3.9
	C1874.5,770.6,1874.5,771.9,1874.5,773.2z M1874.8,762.4c0,0.6,0,1.2,0,1.8c-2.8,0-5.2,0-7.6,0c-0.4-0.2-0.8-0.3-1.3-0.5
	c0-6.3,0-12.5,0-18.7c0.5-0.2,0.8-0.3,1.3-0.5c2.1,0,4.2,0,5.9,0c2.1,0.4,1.6,1,1.6,1.5C1874.8,751.6,1874.8,757,1874.8,762.4z
	 M1883.4,773.2c-1.9,0-3.7,0-5.5,0c0-1.5,0-2.9,0-4.3c0,0,0.2-0.1,0.3-0.1c0.3,0,0.7,0,1.4,0c0,0.9,1.3,1.6,2.7,2.3
	C1883.4,771.6,1884.8,772.4,1883.4,773.2z M1885.7,770.5c-2.5-1.4-6.2-2.7-5.9-4.6c2.2,0,4,0,5.9,0
	C1885.7,767.4,1885.7,769,1885.7,770.5z M1888.8,772.8c0-1.7-0.1-3.4,0.1-5.1c0.7,0,1.1,0,1.4,0c2.2,1.7,4.4,3.3,6.8,5.1
	C1894.2,772.8,1891.7,772.8,1888.8,772.8z M1897.4,769.9c-0.6,0-1.1,0-1.2-0.1c-1.5-1.1-3.1-2.1-4.4-3.2c-0.4-0.3-0.1-0.7-0.1-1.2
	c2.4,0.1,4.6-0.3,6,0.6c0,0.6,0.1,1.3,0,2C1897.6,768.6,1898.2,769.3,1897.4,769.9z M1906.7,772.4c-2,0-3.9,0-5.7,0
	c0-1.5,0-2.9,0-4.3c0.3,0,0.7-0.1,1-0.1C1902.6,769.6,1907.6,770.5,1906.7,772.4z M1908.6,769.8c-2.5-1.5-5.9-2.8-5.8-4.7
	c2.1,0,3.9,0,5.8,0C1908.6,766.7,1908.6,768.3,1908.6,769.8z M1908.6,763.1c-0.5,0.2-0.9,0.3-1.2,0.5c-2.1,0-4.2,0-6.4,0
	c0-6.2,0-12.3,0-18.5c2.6,0,5.1,0,7.7,0C1908.6,751.1,1908.6,757.1,1908.6,763.1z M1911.9,745.1c2.7,0,5.3,0,7.7,0
	c0,5.8,0,11.5,0,17.3c-2.3,0.6-4.8,0.9-7.7,0.8C1911.9,757.1,1911.9,751.1,1911.9,745.1z M1918.2,772.1c-1.9,0-4,0-6.3,0
	c0-1.9,0-3.7,0-5.5c0.3,0,0.5,0,0.8,0l1.9,1.3c0.4,0.3,0.8,0.6,1.2,0.8l3.6,2.4c0.2,0.2,0.3,0.3,0.4,0.5
	C1919.4,771.7,1918.9,771.9,1918.2,772.1z M1920,767.3c-0.2,0.5-0.4,1-0.6,1.5l-0.6-0.4c-1.7-1.2-3.4-2.3-5.1-3.5
	c2.1-0.3,4.1-0.9,6.3-0.2V767.3z M1923.8,771.7l-1-0.7c0-1.9,0-3.7,0-5.6c0.5,0,0.8,0,1.1,0l7.6,5.1c0.2,0.2,0.5,0.4,0.7,0.6
	C1929.2,771.5,1926.7,771.9,1923.8,771.7z M1932.3,768.8l-7.5-5c0.7-0.3,1-0.4,1.4-0.5c2,0,4,0,6.1,0V768.8z M1932.3,758.5
	c-0.2,0.1-0.4,0.1-0.5,0.2c0,0.2,0,0.5,0,0.7c0.1,0,0.3,0.1,0.5,0.1v1.7c-0.6,0-1.1,0-1.5,0c0,0.2,0,0.4,0,0.7c-2.2,0-4.1,0-6,0
	c-0.6,0-1.2,0-1.9,0c0-5.6,0-11.1,0-16.6c0.4-0.2,0.9-0.3,1.3-0.5c2.2,0,4.3,0,6.3,0c0.5,0.2,0.9,0.3,1.3,0.5c0.1,1,0.3,2,0.5,3.1
	V758.5z M1941.3,770.6c-2-0.1-4.2,0.1-6.4-0.1l0,0v-5.7l6.2,4.1C1941.6,769.5,1942.4,770,1941.3,770.6z M1942.5,767.7l-7.3-4.9
	c0.6,0,1.1,0,1.5,0c1.9,0.1,3.7-0.8,5.8-0.2V767.7z M1942.5,760.9c-2.6,0.2-5,0.3-7.6,0.5V745c2.4,0,4.4,0,6.3,0
	c0.5,0.2,0.9,0.3,1.3,0.4V760.9z M1953.4,769.4c-1.1,0.2-2.1,0.4-3.1,0.5c-1.4,0.1-2.9,0-4.1,0c-0.1-0.2-0.2-0.4-0.3-0.6v-5.6
	l5.8,3.9c-0.2,0.5,1.1,0.9,1.8,1.3V769.4z M1953.4,766.4l-7-4.7c2.2-0.3,4.3-0.8,7-0.8V766.4z M1953.4,759.5c-0.3,0.1-0.6,0.2-1,0.3
	c-1.9,0.3-4.1,0.4-6.6,0.5v-11.6v-3.2c0.7-0.2,1-0.4,1.4-0.5c2,0,3.9,0,6.2,0V759.5z M1965.4,768.2c0,0.1-0.1,0.1-0.2,0.2
	c-0.5,0-1,0-1.5,0c-0.1,0.1-0.2,0.3-0.3,0.3c-2,0.1-4,0.2-6.2,0.3l-0.5-0.3c0-0.4,0-0.7,0-1.1c-0.1,0-0.1,0-0.2,0v-5.1
	c0.1,0,0.3,0,0.4-0.1l5.3,3.6c0.1,0.4,0.3,0.7,0.5,1.1c0.1,0.2,0.6,0.4,1,0.6c0.4,0,0.8,0,1,0l0.6,0.4V768.2z M1965.4,765.8
	l-7.8-5.2c0.4,0,0.7,0,1.1,0c2.2,0,4.2-0.7,6.6-0.3V765.8z M1965.4,758.3c-2.7,0.4-5.5,0.7-8.6,0.8c0-3.6,0-7,0-10.4
	c0-1.1,0-2.2,0-3.2c0.7-0.3,1-0.4,1.4-0.5c2.1,0,4.2,0,6.2,0c0.4,0.1,0.7,0.2,1,0.4V758.3z M1974.5,767.3c-2-0.2-3.8,0.6-5.8,0.4v-6
	c2.9,1.1,3,2.6,5.1,3.8C1974.8,766,1975.1,766.6,1974.5,767.3z M1976.6,763.8c-2.9-0.1-1.4-1.6-4.3-1.8c-0.8-0.8-3-1.5-2.4-2.5
	c2.3-0.2,4.4-0.4,6.7-0.5C1976.6,760.8,1976.6,762.3,1976.6,763.8z M1976.7,754.9c0,0.7-0.5,1.5-0.8,2.2c-2.5,0.3-4.5,0.6-6.6,0.9
	c-0.2-0.1-0.5-0.2-0.7-0.3v-10.6c0.1-0.7,0.2-1.4,0.2-2.1c2.6,0,5.2,0,7.9,0C1976.8,748.4,1976.8,751.7,1976.7,754.9z M1979.9,745.5
	c0.5-0.2,0.8-0.3,1.3-0.5c2,0,4.1,0,6.4,0c0,3.4,0,6.7,0,10c-2.6,0.4-4.6,1.3-7.7,1.1C1979.9,752.5,1979.9,749,1979.9,745.5z
	 M1981.3,766.6c-0.5-0.2-1.3-0.4-1.3-0.6c-0.1-1.7-0.1-3.4-0.1-5.1c0.2,0,0.4,0,0.7-0.1c2.1,1.6,4.3,3.1,6.6,4.8
	C1985.2,766,1983.5,766.3,1981.3,766.6z M1987.6,762.8c-2.7-1.4-5.8-2.8-5.9-4.7c2-0.2,3.8-0.3,5.9-0.5
	C1987.6,759.5,1987.6,761.1,1987.6,762.8z M1992,765c-0.5-0.4-0.9-0.8-1.5-1.3c2.2-1.2,1.2-2.4,0.3-3.7c0.5,0,1-0.1,1.7-0.1
	c1,1.7,5.2,2.9,5.3,4.7C1996,764.8,1994.2,765.3,1992,765z M1999.6,761.7c-4.4-0.9-3.2-3.2-7.7-3.9c0-0.4,0-0.8,0-1.2
	c2.6-0.2,4.6-1.2,7.7-0.8C1999.6,757.8,1999.6,759.7,1999.6,761.7z M1999.8,753.1c-2.3,0.5-4.8,1.1-7.5,1.7
	c-2.3-5.8-2.1-6.6-0.2-9.8c2.4,0,4.9,0,7.7,0C1999.8,747.8,1999.8,750.4,1999.8,753.1z M2004.5,763.5c-0.8-0.2-1.3-0.4-1.7-0.5
	c-0.1-1.3-0.3-2.5,2-3.7c2.6,1.1,4.1,2.4,6.1,3.6C2008.8,763.5,2006.6,763.7,2004.5,763.5z M2020.5,762c-2.3-0.1-4.2,0.9-6.9,0.2
	c0.5-1.7,1-3.5,1.5-5.5c0.3,0.3,0.5,0.4,0.6,0.6c1.2,1,1.9,2.1,3.9,2.9C2020.9,760.7,2021.3,761.3,2020.5,762z M2022.7,758.9
	c-1-0.1-1.7-0.2-1.8-0.3c-1-1.9-5.1-3.3-5.3-5.2c2.1-0.9,4.3-1.1,7-0.9C2022.7,754.6,2022.7,756.6,2022.7,758.9z M2027.5,760.9
	c-1.5-0.2-2.3-0.3-2.8-0.4c0.4-0.8,1.5-1.5,0.9-2c-0.9-0.8-0.7-1.6-0.8-2.4c0.6-0.4,1.1-0.7,1.7-1.2c2.4,1.8,4.2,3.4,5.6,5.3
	C2030.2,760.4,2028.5,760.7,2027.5,760.9z M2033.6,757.2c-0.7,0-1,0-1.1,0c-1.8-1.5-3.4-3.1-5.6-4.5c-1-0.7-1.3-1.1-0.9-1.7
	c2.8-0.3,5.2-0.6,7.8-0.9C2033.6,752.6,2034,754.9,2033.6,757.2z M2036.9,758.9c0-2.1,0-4.3,0-6.4c0.2,0,0.3,0,0.5-0.1
	c2.1,1.9,4.3,3.8,6.4,5.6C2041.8,758.8,2039.2,759.1,2036.9,758.9z M2044.8,755.2c0,0-0.1,0.1-0.3,0.1c-0.1,0-0.2,0-0.5,0.1
	c-2.1-1.9-4.2-3.8-6.3-5.7c1.8-0.7,3.6-1.5,7-1.3C2044.8,750.6,2044.8,752.9,2044.8,755.2z M2054.6,756.8c-1,0.1-2,0.1-2.8,0.3
	c-0.8,0.2-1.4,0.4-2.2,0.7c-0.8-0.3-1.4-0.5-1.7-0.6c0-2.3,0-4.4,0-6.5c0.5,0,0.8,0,1.5-0.1c1.1,1.7,2.7,3.3,5.2,4.8
	C2054.6,755.7,2054.6,756.3,2054.6,756.8z M2056.7,753.5c-2.9-1-3.5-2.1-4.6-3c-1.2-1-2.3-2.1-3.6-3.1c2.8-0.5,4.9-1.4,8.1-1.2
	C2056.7,748.5,2056.7,750.8,2056.7,753.5z M2061.7,755.8c-0.4,0-1,0-1.9,0c0-2.2,0-4.3,0-6.5c0,0,0.2-0.1,0.3-0.1
	c0.1,0,0.3,0,0.8-0.1c0.5,0.2,1.7,0.4,1.8,0.7c0.3,1.6,2.2,3.1,3.1,4.6C2064.4,754.8,2063.1,755.3,2061.7,755.8z M2067.5,751.9
	c-3.3-2-3.4-4.1-6.2-5.8c-0.7-0.1-1.1-0.1-1.3-0.2c0-0.5,0-0.9,0-1.3c2.3,0,4.4,0,6.4,0c0.4,0.2,1.1,0.3,1.1,0.4
	C2067.5,747.2,2067.5,749.4,2067.5,751.9z M2074.1,753.5c-0.9,0-2,0-3.1,0c0-2.2,0-4.4,0-7c2.6,2.2,4.7,4.1,7,6.1
	C2076.6,752.9,2075.4,753.2,2074.1,753.5z M2078.6,749.4c-0.6,0-1.1,0-1.2,0c-1.6-1.4-3-2.8-4.6-4.3c0.6-0.1,1.3-0.4,2.2-0.5
	c1.2-0.1,2.7-0.1,3.6,0.5C2078.6,746.6,2078.6,748,2078.6,749.4z M2082,751.7c0-1.9,0-3.6,0-5.2c0.6,0,0.9,0,1.3,0
	c0.8,0.7,1.5,1.4,2.4,2c1.1,0.7,2,1.4,2.1,2.4C2086,751.2,2084,751.4,2082,751.7z M2090.3,749.4c-2.2-1.6-3.9-2.9-5.8-4.2
	c0.9-0.2,1.6-0.5,2.4-0.6c1.2-0.1,2.7-0.1,3.8,0.7C2090.6,746.5,2091.1,747.8,2090.3,749.4z M2111.1,746.1c-1.4,0.4-3.2,0.7-4.7,1.1
	c-1.5,0.4-2.8,0.8-4.3,1.1c-1.6,0.4-3.3,0.6-5.6,1.1c-0.6,0-2,0-3.6,0c0-1.5,0-2.9,0-4.3c0.3-0.1,0.7-0.3,1.2-0.5
	c6.6,0,13.1,0,20.1,0C2113,745.3,2112.3,745.8,2111.1,746.1z"/>
<path class="st7" d="M1626.6,707.7c0,0,90.9-58.7,226.4-76.7c0,0,107.6-12.9,272.3,78.5"/>
<path class="st8" d="M1693,715c0,0,71.4-54.3,182.9-60c0,0,69.1-4.2,185.6,57.6"/>
<rect x="1609.7" y="709.4" class="st9" width="524.1" height="11.6"/>
<rect x="1432" y="432.4" class="st9" width="66.7" height="255.5"/>
<rect x="1423.3" y="465.7" class="st9" width="82.4" height="222.1"/>
<rect x="1447.4" y="419.2" class="st9" width="38.9" height="22.8"/>
<path class="st9" d="M1466.3,439L1466.3,439c-1.8,0-3.3-1.5-3.3-3.3v-49c0-1.8,1.5-3.3,3.3-3.3l0,0c1.8,0,3.3,1.5,3.3,3.3v49
	C1469.7,437.5,1468.2,439,1466.3,439z"/>
<rect x="1380.3" y="573.3" class="st9" width="73.7" height="59"/>
<rect x="1268.7" y="469.2" class="st9" width="68.6" height="147.1"/>
<rect x="1333.3" y="483" class="st9" width="29.7" height="129.3"/>
<polygon class="st9" points="1218.7,505.7 1257.3,474.3 1260,474.3 1260,501 1263,501 1265.3,501 1265.3,571.3 1272.7,571.3 
	1272.7,614.3 1182.7,614.3 1182.7,624 1182.7,519.2 1218.7,519.2 "/>
<rect x="1166.7" y="561.2" class="st9" width="5.7" height="34.8"/>
<rect x="1167.7" y="589.3" class="st9" width="8.3" height="97.5"/>
<rect x="1141" y="432.4" class="st9" width="23" height="57"/>
<rect x="1145.7" y="366.3" class="st9" width="6.8" height="37.3"/>
<rect x="1138" y="400" class="st9" width="17.3" height="27.3"/>
<rect x="1122.3" y="411.2" class="st9" width="22" height="27.8"/>
<rect x="1117" y="419.2" class="st9" width="13.7" height="19.8"/>
<rect x="1084.7" y="432.4" class="st9" width="58" height="42"/>
<rect x="1011.7" y="458.7" class="st9" width="65" height="75.3"/>
<rect x="973.7" y="496.3" class="st9" width="38" height="44.3"/>
<polygon class="st9" points="950.3,328.4 961.7,328.4 965.6,363.9 970.1,363.9 973.7,368.1 966.5,412.1 962.2,412.1 962.2,417.7 
	957.5,417.7 957.5,423.3 952.2,450.2 952.2,670.3 942.6,670.3 942.6,449.8 937.5,424.1 937.5,416.9 932.3,416.9 932.3,411.6 
	927.7,411.6 919.3,366 921.8,363.2 929.5,363.2 931.6,328.4 942.8,328.4 942.8,295.1 950.4,295.1 "/>
<path class="st9" d="M2198.2,684.4c-0.4,0.5-0.9,0.9-1.5,1.7c0,1.9,0,4,0,6.3c-2.3,0-4.4,0-6.7,0c0,1.3,0,2.4,0,3.3
	c-3.4,2.9-7.3,1.3-11.1,2c0,2.8,0,5.6,0,8.2c-0.6,0.6-1.1,1.1-1.6,1.6c-3.5,0-3.5,0-5.6-1.4c0-4.7,0-9.4,0-14.4c-2.9,0-5.7,0-8.8,0
	v-28.8h-37.7v44.9c-7.2-4.1-13.9-8.2-20.9-12c-6.9-3.7-14.1-6.9-21.1-10.4c-7-3.5-14.5-6.1-21.6-9.4c-7.1-3.3-14.5-5.9-21.8-8.8
	c-7.3-2.9-14.6-5.7-22.1-7.8c0-0.8,0-1.3,0-1.8c-2.3-0.3-4.7-0.7-7-1c-0.6,0-1.2,0-2,0c0-0.8,0-1.4,0-2c-1.4,0.1-2.8-0.1-4-1
	c-3.7-1.2-7.3-2.4-11-3.4c-4.4-1.3-9-2.3-13.4-3.6c-3.5-1.1-7.1-2.1-10.7-3c-1,0-2,0-3,0c-0.8-0.2-1.9,0.5-2-1
	c-4.9-1.4-10.1-1.4-14.7-4c-1.5,0.2-2.9,0-4.3-0.3v-0.4h-1.5c-1.9-0.5-3.8-1.2-5.7-1.5c-4.5-0.8-9.1-0.7-13.5-2
	c-0.2-0.1-0.2-0.5-0.4-0.8c-2.4-0.2-4.7,0.3-7.1-0.9c-1.9-0.9-4.5,0.7-6.5-1.1c-0.1-0.1-0.3,0-0.5,0c-4.3-0.3-8.7-0.7-13-1
	c-4.7-0.3-9.3-0.8-14-1c-4.8-0.2-9.6-0.2-14.4,0c-3.5,0.1-7,0.8-10.5,0.9c-3.6,0.2-7.3,0-10.9,0c-1,1.5-3,1.9-4.2,1.8
	c-3.7-0.3-7.2,1.2-10.8,1.2c-0.1,1.5-1.2,0.8-2,1c-1.3,0-2.7,0-4,0c-0.5,1.9-2,0.6-3,1c-1,0-2,0-3,0c-2.5,0.4-5.1,0.4-7.5,1.1
	c-3.2,1-6.4,1.6-9.7,2c-3.2,0.3-6.4,1.3-9.5,2.2c-4.8,1.4-9.7,2.2-14.4,3.8c-4,1.4-8.2,1.6-12.1,3.5c-2.9,1.4-6.4,1.4-9.5,2.5
	c-5.4,1.9-11.1,2.9-16,5.9c-0.9,0.6-1.9,1.1-3.3,2c-0.8,0-2.1,0-3.6,0c-0.5,0.7-1.1,1.4-1.7,2.2c-2.4-0.4-4.3,0.2-6.3,0.9
	c-6.9,2.1-13.7,4.7-20.4,7.5c-3,1.3-6.2,1.9-9,3.5c-0.5,0.3-1.3,0-2,0c-2.5,0.6-4.4,2.6-7,3c0,0.2,0.1,0.4,0,0.5
	c-1.8,0.9-4.3,0.2-5.5,2.5c-2.1-0.2-3.5,1.3-5.2,2c-11.6,4.4-22.3,10.6-33.3,16.1c-2.8,1.4-5.5,2.8-8.3,4.4v-39.2h-37.7v42.9
	c-5.6,0-11.2,0-16.8,0c-0.5,0.5-0.8,0.8-1.4,1.4c0,2.6,0,5.4,0,7.9c-1.6,2.6-3.8,1.2-5.4,1.7c-0.5-0.5-0.9-0.9-1.6-1.6
	c0-4.6,0-9.5,0-14.5c0-0.8,0-1.7,0-3c-2.2,0-4.5,0-6.8,0c-2.3,0-4.7,0.2-7-0.1c-0.3,0-0.5-0.1-0.8-0.1h-17.5c-4.6,0-9.1,0-13.7,0
	c-0.3-0.3-0.8-0.8-1.2-1.2c-0.9-5.9,1-11.9-1.1-17.7c-7.5,0-14.6,0-21.8,0v-61.1h-0.1v-0.9c0.6,0,1.2,0,1.9,0c0-48.7,0-97.3,0-146
	c-1.5-0.1-0.8-1.2-1-2c-1.3,0-2.7,0-4,0c-0.5,0-1,0-1.5,0c-0.1-0.1-0.2-0.2-0.3-0.4c0,0,0,0,0-0.1v-34.7h-11.4l-1.6-1.4v-7.9
	l-1.1-1.8c0,0,0,0,0,0c0,0,0,0,0,0l-1.4-2.2l-3.7,1.3c-1.4-1.5-3-1.4-4.9,0.1c-1.9-1.5-3.8-1.5-5.8-0.3v-30.6l-0.7,0.5l-1.3-3.2
	l-2.6,4.3l-0.8-0.7v28.4l-5.2,1.1c-1.3-1.6-2.8-0.8-3.6-0.3c-0.1,0.1-0.3,0.2-0.4,0.2l-4.4-0.8l-2.1,3.6l0,0
	c-0.3,1.3-0.2,2.6-0.2,3.9c0.1,2,0.2,3.9-1.2,5.6l-14.8,0v2v0.2v3.2c0,9.9,0,19.8,0,29.7c-0.6,0-1.2,0-1.9,0
	c-0.3,0.3-0.7,0.5-1.1,0.9h-0.9c-1.9-1.2-2-1.2-4.3,0.8l0,0v104.7c-3.3,1.6-6.6,1.5-9.8,1.4c-1.1,0-2.3,0-3.5,0l-0.7-1.9h-22.6
	l-0.4,1.5c-1.9,0.5-3.8,1-5.9,1.6l-0.1,0v35.8l-5.9,2.1v31.9h-3.8V531.9l0-0.1l-1.5-1.6h-6.6c0-0.3,0-0.6,0-0.9c0-14.7,0-29.3,0-44
	c-0.7-0.2-1.5-0.4-2.2-0.7c0,0,0,0,0,0c-0.2-1.1-0.4-2.2-0.7-3.3c-0.2-0.9-0.6-1.5-1.1-1.8c-0.5-0.3-1.2-0.4-2.1-0.1l-0.1,0v3.6
	l-4.8,0.3l-0.1,0v0.9c-1.9,0-3.8,0-5.6-0.1c-0.4,0-0.8-0.6-1.2-1c-0.6,0-1.2,0-1.9,0v-3h-2.2v3c-0.6,0-1.2,0-1.9,0
	c-0.6,0-1.2,0-1.9,0c0-0.3,0-0.6,0-1c0-1.5,0-3,0-4.4c0-0.7,0-1.4,0-2.2c0-1.5,0.1-3-0.2-4.5l0-0.1h-1.7h-0.2h-1.8v-1.8h-1.7
	c-4.9,0-9.5,0-14.1,0c-0.1,0-0.2,0.1-0.3,0.2c0,0-0.1,0.1-0.1,0.1l0,0v1.4h-13.8v-1.8h-3.1c-8.9,0-17.2,0-25.7,0
	c-0.1,0-0.2,0.1-0.3,0.2c0,0-0.1,0.1-0.1,0.1l0,0v1.4h-2.8h-0.2h-1.9v101.7l-2.8,1.8l0,0l0,0c-1.5,3.5-1.4,7.2-1.3,10.7
	c0,1.8,0.1,3.6-0.1,5.4c-0.5-1-0.9-1.9-0.9-3.2c0.2-2.8,0.1-5.6,0-8.5c-0.1-2.7,1.1-5.2,1.1-8c-0.2-16.1-0.1-32.2-0.1-48.2
	c0-5,0-9.9,0-14.9c0-0.7,0.4-1.8-1-1.8c-0.6,0-1.2,0-1.9,0v-0.8l-2-0.7v-25.1l-1.5-1.5l0,0h-2.2l0,0c-0.3,0.3-0.5,0.5-0.8,0.8
	c-0.7,0.7-1.5,1.5-2.2,2.3c-0.3,0.3-0.3,0.8-0.3,1.3c0,0.2,0,0.3-0.1,0.5l-0.9,0c-1.1-0.5-1.8,0.2-2.5,0.9c-0.6,0.7-1.3,1.3-2.3,1
	v-20.6h-0.2c0-0.1,0-0.2,0-0.2c-0.2,0.1-0.3,0.2-0.5,0.2h-4.7v25.1l-2.9,3.6h-2.1v2h-0.7l0,0l-0.2,0h-0.1l0,0c-2.5,0.5-3.5,1.5-4,4
	l-1.9,1c-2.2,0.2-2.9,0.8-3.1,3l-1.9,1c-1.9,0.2-3.4,1.4-4.8,2.5c-0.4,0.3-0.8,0.7-1.3,1l-0.1,0v10.1l-2.3,2.3
	c-0.3,0-0.6,0.1-0.8,0.1c-0.6,0-1.2,0.1-1.6,0.4c-1.6,1.5-3.5,1.5-5.4,1.6c-0.4,0-0.9,0-1.3,0c-2,0.1-4-0.2-5.9-0.6
	c-2.3-0.4-4.7-0.9-7.1-0.5c-0.2,0-0.5-0.1-0.7-0.3c-0.3-0.2-0.6-0.4-0.9-0.4c0,0,0,0-0.1,0c-0.5,0-1.1-0.1-1.6-0.2
	c-1-0.2-2.1-0.4-3,0.1c-1,0-1.9,0-3,0c0,0.3,0,0.6,0,0.9h-2.1v100c-1.4-0.2-2.2,0.6-2.9,1.5c-0.3,0.4-0.7,0.8-1.1,1.1l-0.1,0v52.9
	l-1.1-1l-0.3,2.3l-1.4-0.7v-16.1c0-21.6,0-43.2,0-64.7c0-0.3,0-0.6,0-0.9c0-1.5,0.1-3-1-4.2v-1.9l-2.9-0.3V564l0,0
	c-1-1-1.8-1.8-2.6-2.6l0,0h-0.1c-0.8,0-1.7,0-2.5,0h-0.1c0-0.4,0.3-0.8,1.1-0.9c0-29.7,0-59.5,0-89.2c0-0.1-0.1-0.3-0.2-0.4
	c-0.1-0.1-0.2-0.2-0.3-0.4c-0.9,0-1.7,0-2.5,0c-0.3,0.3-0.6,0.5-1.1,0.9h-0.8c0-0.2-0.1-0.3-0.1-0.5c0-0.6,0-1,0-1.4
	c0-1.3,0-2.7,0-4c-0.5,0-1,0-1.9,0v-0.9c0.1-0.2,0.3-0.3,0.4-0.4c0,0,0.1-0.1,0.1-0.1c0.1-0.2,0.3-0.3,0.4-0.5c0-0.1,0-0.2,0-0.3
	c0.1-0.2,0.1-0.5,0.1-0.7c0-0.2-0.1-0.5-0.1-0.7c0-0.8,0-1.5,0-2.3c-0.3-0.3-0.5-0.7-0.8-1c0.1-0.1,0.2-0.1,0.2-0.2
	c0.3-0.2,0.6-0.4,0.6-0.6c0.1-4.5,0.1-9,0-13.4c0-0.1,0-0.1-0.1-0.2c0-0.5,0-1.1,0-1.6c-0.4-0.3-0.7-0.6-0.9-1v-1
	c1.4-0.9,1.2-2,1-3.1c0-0.1-0.1-0.3-0.1-0.4c0-0.5,0-1,0-1.6c-0.6,0-1.2,0-1.9,0v-0.5l-3-1.9v-9.1l-2-2v-21.3l-3.1-1.8v-29.9l0,0
	c-1.4-1.9-3.2-1.6-4.7-1.4l0,0l0,0c-1.4,1.8-1.4,4-1.4,6c0,6.2,0,12.5,0,18.6c0,2.3,0,4.6,0,6.9c-2.3,0.9-4,2.4-5.1,4.7
	c-0.2,0.5-0.6,0.9-0.9,1.3c-0.7,0.9-1.5,1.9-1.1,3.3h-2v2v0.2v0.8h-2v2v0c-1.1,0.1-2.3,0-3.4,0c-2.8-0.1-5.8-0.2-8.6,1.5l-0.1,0v6.1
	c-0.1,0.1-0.2,0.3-0.3,0.4c-0.2,0.2-0.3,0.4-0.5,0.4c-0.7,0.3-1.5,0.5-2.2,0.7c-0.3,0.1-0.6,0.2-0.8,0.3l-0.1,0v1.6h-2l0,0.1
	c0,1.4,0,2.8,0,4.1c0,1.6,0,3.2-0.1,4.7c-0.8,0.1-1.5,0.2-2.2,0.3c-1.2,0.1-2.2,0.2-3.4,0.6c-2.9,1-5.2,0.7-6.8-0.7l0,0h0
	c-1.3,0-2.6,0-3.8,0c-3.1,0-6.4-0.1-9.6,0.1c-1.2,0.1-2.4,0.7-3.5,1.3c-0.5,0.3-1,0.5-1.5,0.7l-0.1,0v0.1c0,0.9,0,1.7,0,2.5
	c0,1.7-0.1,3.3,0.1,4.9c0.2,1.7-0.2,3.3-0.6,4.9c-0.1,0.2-0.1,0.5-0.2,0.7c0,0-0.1,0-0.1,0c0,0.2,0,0.3,0,0.5c0,0.1-0.1,0.3-0.1,0.4
	h-2v77l-5.8-1.2v-57.5l-4.1-2.8v-3.5l-0.1,0c-2.3-0.2-4.5-0.3-6.7-0.3c-2.6-0.1-5.4-0.2-8-0.5c-5-0.6-10.7-1.3-16.1,0.7
	c-1,0.4-2.1,0-3.2-0.3c-0.7-0.2-1.5-0.5-2.3-0.5c0,0,0,0,0,0c-2.2,0-4.4,0-6.6-0.1c-5.9-0.2-12-0.4-18,1.4l-0.1,0v4.4l-3.9,0.4v30.9
	c-0.3,0-0.6,0-0.9,0c-0.6-0.2-1.2-0.5-1.9-0.7v-0.8l0,0c-1-1.2-2.1-2.2-4.1-1.2l0,0l0,0c-0.4,0.7-0.9,1.6-1.4,2.4h-7.2
	c-0.1-0.2-0.1-0.5-0.2-0.7c-0.1-0.2-0.1-0.5-0.2-0.7c0-0.8,0.1-1.5-0.2-2.1c-0.2,0-0.3,0-0.4-0.1c-0.4-0.9-0.9-1.6-1.8-2.1l-0.1,0
	l-3.7,3.5l0,0v2.3l-4.8,0.3v1.8v0.2v0.8l-3.5,1l-1.5,0.4v1.6h-2v14.6l-2.9,2.9l0,0l0,0c-0.1,1.6-0.1,3.3,0,4.9
	c0.1,2.9,0.1,5.8-0.7,8.7c-0.1,0-0.1,0-0.2,0c0,0.2,0,0.4,0,0.6c0,0.1-0.1,0.2-0.1,0.3h-1.8h-0.2h-2v0.1c0,43.6,0,86.9,0,130.2
	c0,0.1,0,0.2-0.1,0.4c0,0-0.1,0.1-0.1,0.1h-9.5l-11.2,0.3l-0.5,1c-0.5,0-0.9,0-1.4,0c0,0.3,0,0.6,0,0.9h-2.1v10.6l-1.6,1.5
	c-1.2,0-2.5,0-3.7,0c-0.2,0.3-0.3,0.6-0.4,0.9h-1.6l0,0.1c-1.8,3.1-1.7,6.6-1.6,9.9c0,2.7,0,5.5,0,8.4c0,0.8,0,1.6,0,2.5
	c-0.4-0.1-0.8-0.2-1.1-0.4c-4-1.9-8.1-3.4-12.3-3.3c-2.8-2.3-2.5-5.6-3.4-8.3c-2.9-8.8-8-17.2-14.8-22.8c-4.3-3.6-9.3-6.2-14.7-8.4
	c-1.1-4.1-2.7-7.9-3.7-12c-0.9-3.9-1.3-8-4.1-11.2c-9.1-1.2-17.9,0.4-26.5,3.3c-0.5-9.5-0.9-18.1-1.3-26.8c-0.1-3.5,0-7,0-10.7
	c-2.1-0.1-4.1-0.4-6,0.9c-0.1,0.1-0.2,0.1-0.4,0.1c0,0,0,0,0,0c-0.5,0.1-1.1-0.1-1.6-0.1c-3.9-0.2-7.2,1.7-10.9,2.2
	c0,0.2-0.1,0.3-0.1,0.5c-0.6,0.2-1.3,0.3-1.9,0.4l-0.1,0l-0.3,1.2c-1.8,0.6-3.9,1.3-6,2.3c-9.1,3.7-20.8,11.2-28.4,18.4
	c-0.2,0-0.5,0-0.7,0c-0.1,0.3-0.1,0.5-0.3,0.8l-1.9,0.1l0,0.1c-0.4,1.7-1.7,2.5-3.1,3.3c-0.8,0.5-1.6,1-2.3,1.7c-0.4,0-0.8,0-1.2,0
	c0,0.3,0,0.6,0,0.9h-2.1v2.4c-0.6,0.7-1.1,1.3-1.7,2.1c-1.4,1.7-2.8,3.4-4.3,5c-0.7,0.7-1.3,1.6-1.9,2.5c-0.7,1.1-1.5,2.2-2.5,3.1
	c-2.4-8.9-3.6-17.9-5.7-26.7c-2.2-0.7-4,0-5.6,0.9c-1.2,0.4-2.4,1-3.5,1.7c-0.7,0.5-1.4,0.9-2.2,1.2c-2,0.9-3.9,2.3-5.7,3.7
	c-1.3,1-2.7,2-4.1,2.8c-3.2,1.9-5.7,4.6-8.2,7.3c-0.7,0.8-1.5,1.6-2.3,2.4c-0.6,0.7-1.2,1.5-1.8,2.2c-0.4,0.5-0.7,1-1.1,1.5
	c-0.9,1-1.6,2.2-2.4,3.3l-0.1,0.2c-0.3,0.5-0.7,1.1-1,1.6c-5.5,0.3-10.9-1.6-16.4-1.2c-1.7,0.1-3.8-1.3-5.5-0.7
	c-4.2,1.4-8.4,0.7-12.4,1c-0.3,0.3-0.6,0.6-0.9,0.8c-0.4,0-0.7,0-1.1,0l0,0l-1.9,1.7l0.1,0.1c1.5,2,1.3,4.2,1.2,6.6
	c-0.2,2.2-0.3,4.5,1,6.5c0,0.1,0,0.2,0,0.3l0,0.1c-0.4,2.9,0,5.7,0.5,8.6c0.3,1.8,0.6,3.7,0.6,5.6l-0.3,0.3c-0.7-0.4-1.4-0.8-2-0.7
	c-2.7,0.5-5.2-0.6-7.5-1.2c-2.4-0.7-4.7-0.8-7.1-0.8c-6.8,0-13.7,0-20.1,0c-0.5,0.3-0.9,0.6-1.3,0.9c-0.2,0-0.5,0-0.7,0h0l0,0
	c-0.9,0.6-1.6,1.1-2.2,1.5l-0.1,0.1l0.1,0.1c1.6,2.9,2.4,6,3.2,8.9c0.3,1.2,0.7,2.5,1,3.7c0.7,2.2,1.5,4.5,2.2,6.6
	c0.6,1.7,1.2,3.5,1.8,5.2c0.9,2.8,1.8,5.6,2.7,8.6c0.3,1.1,0.7,2.2,1.1,3.4c-1.7,0-3.5-0.2-5.2,0c-0.3,0.3-0.5,0.5-0.8,0.8
	c-0.4,0-0.8,0-1.2,0.1l0,0l-2.1,2.1c-1,0-1.9,0-2.8,0c-0.3,0.3-0.6,0.6-0.9,0.9h-1.2l-1.5,1.5v12.5h1004c-0.2-0.6-0.1-1.3,0.2-1.8
	c1.5-3,0.7-6.1,0.9-9.1c0.1-1.3,0-2.6,0-4c104,0,207.8,0,311.6,0v0.3h3.2v-0.3c28,0,55.9,0,83.9,0c0,4.9,0,9.8,0,14.9h168.2
	c0-17,0-34,0-51C2213.3,684.4,2205.8,684.4,2198.2,684.4z M1658.6,709c-0.5,0.5-0.9,0.9-1.4,1.4c-1.8-0.5-4,0.8-5.9-0.9
	c-0.4-0.3-1.4-0.4-1.9-0.1c-3,2-6.3,0.4-10,1.2c1.3-3.2,3.2-4.9,5.6-6.2c2.2-1.2,4.1-3.3,6.3-3.8c2.7-0.6,4-4,7.3-3
	C1658.6,701.3,1658.6,705.1,1658.6,709z M1667.6,710.3c-1.6,0-3.1,0-4.4,0c-0.5-0.5-0.8-0.8-1.3-1.3c0-3.7,0-7.4,0-11.4
	c0.4-0.1,0.8-0.2,1.3-0.3c0.9,2.2,1.6,4.4,2.6,6.4C1666.9,705.7,1668.3,707.4,1667.6,710.3z M1670.7,704.8c-3.2-3.4-3.8-7.5-6.5-11
	c2.7-0.2,3.5-3.2,6.5-2.3C1670.7,695.9,1670.7,700,1670.7,704.8z M1675.2,710.3c-0.8-0.8-1.5-1.5-2.2-2.2c0-4.5,0-9.1,0-13.6
	c0.5,0,0.9-0.1,1.5-0.1c1.7,5.2,4.4,10,5.8,15.9C1678,710.3,1676.6,710.3,1675.2,710.3z M1681.5,701c-3-2.2-3.4-5.5-6-12.4
	c2-0.9,3.8-1.7,6-2.7C1681.5,691.3,1681.5,696.1,1681.5,701z M1684.9,709.1c0-6.5,0-13,0-19.5c0.2,0,0.4-0.1,0.5-0.1
	c1.4,3.1,3.2,6,4,9.2c0.8,3.5,1.6,6.9,4,10.5C1690.2,708.8,1687.8,712.1,1684.9,709.1z M1693.6,698.8c-3.9-1.4-3.2-5-4.7-7.2
	c-1.4-2-1.4-5-2-7.6c1.1-1,2.3-2.1,3.8-3.5c0.6,0,1.7,0,2.9,0C1693.6,686.4,1693.6,692.3,1693.6,698.8z M1703.8,703
	c-2.4,1.5-4.6,3.4-7.8,3.3c0-7.7,0-15.3,0-23.9c3.1,6.5,4.8,12.6,7.8,18.1C1704.1,701.2,1703.8,702.2,1703.8,703z M1704.6,691.3
	c-0.3-0.3-1-1-1.7-1.7c-1.7-3.2-3.1-6.9-5.2-10.4c1.8-2.3,4-3.1,7-2.7C1704.6,681.6,1704.6,686.8,1704.6,691.3z M1715.6,671.2
	c0,5.6,0,10.8,0,16.1c-2.2-4.8-5.1-9.1-6.1-14.6C1711.9,672.1,1713.7,671.7,1715.6,671.2z M1708,681.5c0.5-0.1,0.9-0.1,1.2-0.2
	c2,5.1,4,10,6,15c-2.4,2.4-4.1,4.3-7.3,3.9C1708,694.1,1708,687.9,1708,681.5z M1708.8,709.2c0-0.3-0.1-0.7-0.1-1
	c2.1-1.3,4.3-2.6,6.9-4.3c0.1,1.9,0.2,3.5,0.4,5.3C1713.4,709.4,1711.1,709.5,1708.8,709.2z M1726.6,709.2c-2.4,0-4.8,0-7.7,0
	c0-2.3,0-4.4,0-6.8c1-0.4,2.1-0.9,3.7-1.5c0,0,0.2-0.6,0.4-1.2c1.2-0.3,2.3-0.7,3.6-1C1726.6,702,1726.6,705.5,1726.6,709.2z
	 M1726.8,693.1c-2.7,0.8-5,1.5-7.4,2.2c-0.8-3.3-0.9-13.7-0.3-20.9c0.2,0.1,0.4,0.2,0.6,0.3l0.2,0.4c1,2.3,1.6,5,3.2,6.7
	c1.9,2.1,1.8,5,3.6,7C1727.3,689.7,1726.8,691.5,1726.8,693.1z M1727.6,682.1c-0.1,0.1-0.2,0.2-0.2,0.2l-4.6-8.3
	c-0.4-1.6-0.8-3.3-1.3-5.2c1.1-0.6,2.1-1.1,3.1-1.7c-0.1-0.3-0.1-0.6-0.2-0.9c1,0,2,0,3.2,0C1727.6,671.6,1727.6,676.8,1727.6,682.1
	z M1728.3,668.6c0.3,0,0.5,0,0.7-0.1l8.8,15.9c0,0.9,0,1.7,0,2.4c-1.9,2.2-4.2,2.7-6.6,2.6l-1.4-2.6c0.1-1.7,0.3-3.5-0.9-5
	c0.2-0.2,0.6-0.4,0.6-0.6c0.1-3.6,0.2-7.2,0.3-10.8C1729.4,669.9,1729,669.4,1728.3,668.6z M1738.7,708c-0.4,0.4-0.7,0.7-1.2,1.2
	c-1.9,0-4.1,0-6.3,0c-0.4-4.3-0.9-8.8-1.4-13.3c1.5-0.8,3-1.5,4.7-2.4c1.2,0,2.7,0,4.2,0C1738.7,698.4,1738.7,703.2,1738.7,708z
	 M1739.2,680.8l-2.8-5.1c-0.6-2-1.6-3.8-2.5-5.6c-1-2-1.5-4-2.4-6.4c2.4-0.6,4.6-1.1,7.2-1.8c0.2,0.6,0.4,1.2,0.6,1.7V680.8z
	 M1820.3,645.5c0.3,0,0.6,0.1,0.9,0.1l7.6,13.3c0,0,0,0,0,0c-2.7,0.9-5.4,1.9-8.5,1.3V645.5z M1809.9,647.4c1.1,2,2.1,3.8,3.1,5.5
	l2.7,5.5c0,0.7,0,1.6,0,2.7c-1.8,0.5-3.7,1-5.8,1.6C1809.9,657.6,1809.9,653.1,1809.9,647.4z M1799,649.4c0.1,0,0.3,0,0.5-0.1
	c0.7,2.1,1.7,4,2.8,5.8l3.7,7.5c-3.6,2.8-4.7,3.3-7,2V649.4z M1783.6,648.1c0,4.7,0,8.9,0,13.2c-2.3-0.7-5.6-7.2-5.9-11.8
	C1779.8,649,1781.6,648.5,1783.6,648.1z M1772.6,651.1c0,4.6,0,8.9,0,13.1c-0.5,0.1-0.8,0.1-1.4,0.2c-1-3.9-4.6-6.9-4.4-11.7
	C1768.6,652.2,1770.5,651.7,1772.6,651.1z M1764,658.5c0.5-0.1,0.8-0.1,1.2-0.2c2.5,4.9,5.1,9.8,7.6,14.7c0.1,0.2-0.1,0.6-0.1,1.2
	c-2.8,0.2-5.2,3.4-8.7,1.2C1764,669.6,1764,664.1,1764,658.5z M1757.6,654.4c1.2-0.2,2.8-0.4,4,1.3c0,4.1,0,8.3,0,13
	c-1-0.6-1.9-0.8-2.2-1.3c-1.7-3.3-3.2-6.6-5-10.3C1755.6,656.1,1756.4,655.4,1757.6,654.4z M1749.6,657.7c0,5.4,0,9.9,0,15.1
	c-0.8-0.3-1.3-0.7-1.7-1.1l-0.8-1.4c-0.4-1.1-0.4-2.3-1.1-3.1c-1.3-1.7-2.3-3.7-3.4-5.5C1743.9,658,1747.5,660.2,1749.6,657.7z
	 M1749.5,709.1c-0.3,0.3-0.7,0.7-1.1,1.1c-1.7,0-3.4,0-5.3,0c-0.2-0.2-0.5-0.5-0.9-0.9v-19.6c2.3-0.6,4.7-1.1,7.3-1.6
	C1749.5,695.3,1749.5,702.2,1749.5,709.1z M1742.4,686.5l-0.1-0.2v-18.7l7.3,13.2c0.2,0.6,0.3,1.2,0.2,1.9
	C1747,684.1,1744.5,685.4,1742.4,686.5z M1752.9,663.5c0.6,0,1.3-0.2,1.4,0c2.3,4.5,4.5,9,6.8,13.8c-2.5,2.6-5.1,3.5-8.3,2.9
	C1752.9,674.4,1752.9,669,1752.9,663.5z M1761.7,709c-0.5,0.5-0.8,0.8-1.3,1.3c-2,0-4.1,0-6.2,0c-0.4-0.4-0.7-0.7-1.2-1.2
	c0-6.9,0-14,0-21.7c2-1.3,4.4-2.7,7-4.3c0.9,0.9,1.3,1.3,1.7,1.7C1761.7,692.9,1761.7,701,1761.7,709z M1772.7,707.8
	c-0.2,0.9-0.9,1.6-1.4,2.5c-2,0-4.1,0-6.1,0c-0.5-0.5-0.8-0.8-1.3-1.3c0-8.6,0-17.4,0-26.5c2.2-1,4.6-2,7.4-3.3
	c0.2,0.6,0.6,1.4,0.9,2.2c0.2-0.2,0.4-0.4,0.6-0.6c0,7.8,0,15.6,0,23.4C1772.8,705.5,1773,706.7,1772.7,707.8z M1775.8,656.9
	c1,0.7,1.7,0.9,2,1.4c1.6,3,3.1,6,4.5,9.1c0.4,0.8,0.4,1.8,0.6,2.4c-2.4,1-4.5,1.8-6.8,2.7c-0.1-0.7-0.3-1.2-0.3-1.6
	C1775.8,666.5,1775.8,662,1775.8,656.9z M1783.7,709.1c-2.4,0-5,0-7.7,0c0-10.4,0-20.8,0-31.6c2.4-1.4,4.8-2.4,7.7-2
	C1783.7,686.7,1783.7,697.8,1783.7,709.1z M1794.7,709.4c-2.6-0.3-5.4,0.9-7.8-1.2c0-11.2,0-22.3,0-33.4c3.1-2.4,3.1-2.4,7.8-2.4
	C1794.7,684.8,1794.7,696.9,1794.7,709.4z M1786.9,668.4c0-5.6,0-10.7,0-15.9c0.5-0.1,1-0.2,1.6-0.3c1.7,5.1,5.3,9.3,6.5,14.7
	C1792.2,667.5,1789.7,667.9,1786.9,668.4z M1795.6,658.2c-0.3,0.1-0.6,0.3-0.9,0.4c-2.4-3.6-4-7.7-6.1-11.4c2.1-2,4.4-2,7-1.7
	C1795.6,649.7,1795.6,654,1795.6,658.2z M1806.7,708c-0.5,0.5-0.8,0.8-1.3,1.3c-2,0-4.1,0-6.4,0v-39.1c2-0.6,3.9-1.1,6.4-1.8
	c0.1,0.4,0.3,1.3,0.5,2.2c0.3-0.3,0.5-0.5,0.8-0.8C1806.7,682.5,1806.7,695.3,1806.7,708z M1806.8,655.4c-1.1-1.1-1.9-2.1-2.6-3.2
	l-2.5-5.2c-0.4-1.1-0.8-2.1-1.2-3.1c2.2-0.6,4-1.2,6.3-1.8C1806.8,646.6,1806.8,650.5,1806.8,655.4z M1817.6,709.2
	c-2.4,0-4.8,0-7.7,0c0-13.9,0-27.7,0-41.9c2.4-0.7,4.9-1.4,7.7-2.2C1817.6,679.9,1817.6,694.5,1817.6,709.2z M1817.6,652.2
	c-0.5,0.1-0.8,0.1-1.4,0.2l-0.1-0.2c-0.4-1.5-1.1-2.8-1.9-4l-3.4-6.9l-0.8,0.4c0.4-0.4,0.8-0.8,1.2-1.2c2.1,0,4.2,0,6.4,0
	C1817.6,644.4,1817.6,648.3,1817.6,652.2z M1829.3,710.1c-0.7,0.4-1.4,0.8-2,1.1c-2.1-0.4-4.1-0.8-6.2-1.1c-0.2-0.5-0.5-1.1-0.8-1.6
	v-3.2c0.1-0.1,0.2-0.2,0.4-0.3c-0.1-0.5-0.2-1.1-0.4-1.6v-40c0.4-0.4,0.7-0.7,1-1c0.8,0,1.7,0,2.5,0c1.7,0,3.3,0,5,0
	c0.2,0,0.4,0,0.6,0V710.1z M1829.3,637.5l-0.3,0.1l0.3,0.5v15.7l-5.6-9.9c-0.1-0.2-0.2-0.4-0.3-0.6l-2-3.5l-0.2,0.1
	c0-0.1,0-0.3,0-0.4c0.5-0.4,1.4-1.2,2.5-2.1C1825.1,637.4,1827,637.4,1829.3,637.5L1829.3,637.5z M1832,642.7l8,14
	c0,0.1,0,0.2,0,0.3c-2.7,0.4-5,2.1-8,1.1V642.7z M1840.7,710.5c-0.8-0.1-1.5-0.2-2.3-0.2c-2.1,0-4.3,0.6-6.4-0.3v-48.1
	c0.6-1.2,1.9-0.2,2.8-0.5c0-0.6,0-1.2,0-2.6c1,0.8,1.5,1.2,2,1.6c1.3,0,2.6,0,3.9,0V710.5z M1840.7,649.2c-0.1,0.4-0.6,0.8-0.9,1.2
	c0,0,0,0,0,0l-7-12.3c0-0.1-0.1-0.2-0.1-0.3c0.5-0.2,1.3-0.6,2.7-1.3c1,0,3.1,0,5.3,0V649.2z M1845.3,637.2l-0.2-0.4
	c-0.2-0.7-0.4-1.5-0.5-2.4C1844.9,635.4,1845.1,636.3,1845.3,637.2z M1843.3,639.7l5.7,10c1.1,2.8,1.7,3.3,2,3.7
	c-1.4,1-2.5,1.8-4,2.8c-0.9,0-2.2,0-3.7,0V639.7z M1852.6,710c-2.3,0.4-4.8,1.5-7.2,1.3c-0.7-0.1-1.4-0.2-2.1-0.3v-50.6
	c0.1,0,0.3,0,0.4,0c0.4-0.3,0.7-0.9,1.2-1c0.9-0.1,1.9,0,2.8,0c1.3-2,3.2-0.4,4.8-1.2C1852.6,675.6,1852.6,692.7,1852.6,710z
	 M1852.8,648c-0.7-0.5-1.5-1-2-1.3l-0.9-1.5c-0.2-1.3-0.8-2.2-1.5-3.1c-0.1-7.6,1.5-7.6,3.2-7.6c0.4,0.7,1.2,1.3,1.2,2
	C1852.8,640,1852.8,643.6,1852.8,648z M1874.5,633.5c0,3.4,0,6.9,0,10.5c-2-1.8-4.3-5.9-5.6-10.5
	C1870.7,633.5,1872.5,633.5,1874.5,633.5z M1857.2,633.5c1.8,0,3.5,0,5.2,0c0.5,0.5,0.8,0.8,1.2,1.2c0,4.2,0,8.4,0,12.6
	c-0.5,0-0.8,0.1-1.2,0.1c-2.2-4-4.3-8.1-6.7-12.6c0.4-0.2,1.2-0.5,2-0.8C1857.5,633.8,1857.4,633.6,1857.2,633.5z M1854.7,641.6
	c0.7-0.1,1.1-0.2,1.5-0.2c1.8,3.6,3.7,7.3,5.7,11.3c-0.4,0.5-0.9,1-1.5,1.7c-1.4,0-2.8,0-4.6,0
	C1853.8,650.1,1855.3,645.8,1854.7,641.6z M1863.7,708c-0.4,0.4-0.8,0.8-1.3,1.3c-2,0-4.1,0-6.2,0c-0.3-0.3-0.7-0.7-1.2-1.2
	c0-15.9,0-32,0-48.6c1.2-0.7,2.3-1.3,3.3-2c1.4,0,2.9,0,4.2,0c0.5,0.5,0.9,0.9,1.3,1.3C1863.7,675.2,1863.7,691.6,1863.7,708z
	 M1865.9,638.1c1,0.5,2.3,0.8,2.4,1.3c0.6,3.7,3.4,6.2,4.8,9.5c0.6,1.5,0.6,2.7,0.6,4.3c-2.1,0-4.3,0-6.6,0
	c-0.5-0.5-0.9-0.9-1.2-1.2C1865.9,647.6,1865.9,643.1,1865.9,638.1z M1873.1,710.3c-1.8,0-3.9,0-5.9,0c-0.4-0.4-0.8-0.8-1.3-1.3
	c0-16.6,0-33.3,0-50.3c0.5-0.5,0.8-0.8,1.3-1.3c2.4,0,4.8,0,7.6,0c0,1.7,0,3.3,0,4.9c0,14.6,0,29.2,0,43.8
	C1874.8,707.7,1875.2,709.3,1873.1,710.3z M1883.4,633.5c1.4,2.1,0,4.1-1.1,5.6c-1.4,2-2.7,3.8-2.7,6.3c-0.7,0-1,0-1.4,0
	c-0.1-0.1-0.3-0.2-0.3-0.4c0-3.8,0-7.6,0-11.5C1879.8,633.5,1881.5,633.5,1883.4,633.5z M1885.6,709.1c-2.4,0-5,0-7.7,0
	c0-17,0-34.1,0-51.7c2.7,0,5.1,0,7.7,0C1885.6,674.7,1885.6,691.8,1885.6,709.1z M1885.7,653.2c-1.9,0-3.6,0-5.9,0
	c-0.3-5.1,3.4-8.7,5.9-12.5C1885.7,644.8,1885.7,648.9,1885.7,653.2z M1888.8,634.5c2.9,0,5.4,0,8.3,0c-2.4,4.8-4.6,9.3-6.8,13.8
	c-0.4,0-0.7,0-1.4,0C1888.7,643.7,1888.8,639,1888.8,634.5z M1897.7,708c-0.5,0.5-0.8,0.8-1.3,1.3c-2,0-4.1,0-6.2,0
	c-0.3-0.3-0.7-0.7-1.2-1.2c0-16.3,0-32.7,0-49.5c3.5-2.9,5.9,0.4,8.7,0.6C1897.7,675.8,1897.7,692,1897.7,708z M1897.8,647.5
	c0.1,1.8,0,3.6,0,5.3c-1.4,2.3-3.6,1.3-6,1.6c0-1.4-0.3-2.5,0.1-3.3c1.3-2.9,2.9-5.8,4.4-8.6c0.1-0.2,0.6-0.1,1.2-0.1
	C1898.2,644,1897.6,645.8,1897.8,647.5z M1900.9,635.6c1.8,0,3.7,0,5.7,0c1,5.1-4.1,7.5-4.7,11.9c-0.3-0.1-0.7-0.2-1-0.3
	C1900.9,643.4,1900.9,639.6,1900.9,635.6z M1908.6,642.5c0,4.2,0,8.5,0,12.8c-1.9,0-3.7,0-5.8,0
	C1902.7,650.1,1906.1,646.5,1908.6,642.5z M1908.6,709.3c-2.6,0-5,0-7.7,0c0-16.6,0-33.1,0-49.8c2.2,0,4.3,0,6.4,0
	c0.4,0.4,0.7,0.7,1.2,1.2C1908.6,676.8,1908.6,693,1908.6,709.3z M1934.9,640.6L1934.9,640.6c2.1-0.5,4.3,0,6.4-0.3
	c1.1,1.7,0.3,3-0.2,4.4l-6.2,11.2V640.6z M1911.9,636.5c2.3,0,4.4,0,6.3,0c0.7,0.6,1.2,1,1.6,1.4c-0.1,0.5-0.3,1-0.4,1.4l-3.6,6.4
	c-0.4,0.7-0.9,1.5-1.2,2.2l-1.9,3.4c-0.2,0-0.5,0-0.8,0C1911.9,646.4,1911.9,641.7,1911.9,636.5z M1919.7,709.1c-2.4,0-5,0-7.7,0
	c0-16.1,0-32.3,0-48.7c2.9-0.3,5.4,0.5,7.7,2.1C1919.7,678,1919.7,693.5,1919.7,709.1z M1920,656.6c-2.2,1.8-4.2,0.2-6.3-0.6
	c1.7-3.1,3.4-6.3,5.1-9.5l0.6-1.2c0.2,1.4,0.4,2.7,0.6,4V656.6z M1922.8,639.3l1-1.8c2.9-0.6,5.5,0.5,8.4,1.5
	c-0.2,0.6-0.5,1.2-0.7,1.7l-7.6,13.7c-0.3,0-0.6,0-1.1,0C1922.8,649.3,1922.8,644.3,1922.8,639.3z M1932.3,670
	c-0.2,0.1-0.4,0.2-0.5,0.3c0,0.7,0,1.3,0,2c0.1,0.2,0.3,0.4,0.5,0.5v26.8c-0.2,2.8-0.4,5.5-0.5,8.2c-0.5,0.5-0.8,0.8-1.3,1.3
	c-2,0-4.1,0-6.3,0c-0.4-0.4-0.8-0.8-1.3-1.3c0-14.8,0-29.5,0-44.6c0.7,0,1.3,0,1.9,0c1.9,0,3.8,0,6,0c0,0.8,0,1.4,0,2
	c0.4,0,0.9,0,1.5,0V670z M1932.3,660.3c-2.1,0-4.1,0-6.1,0c-0.4-0.4-0.7-0.7-1.4-1.4l7.5-13.5V660.3z M1942.5,708.1
	c-0.4,0.3-0.8,0.7-1.3,1.1c-1.9,0-3.9,0-6.3,0v-44.1c2.7,0.5,5,0.9,7.6,1.4V708.1z M1942.5,662c-2,1.5-3.8-0.8-5.8-0.6
	c-0.4,0-0.9,0-1.5,0l7.3-13.1V662z M1953.4,709.3c-2.2,0-4.2,0-6.2,0c-0.4-0.4-0.7-0.7-1.4-1.4v-8.5v-31.2c2.4,0.5,4.7,0.6,6.6,1.5
	c0.4,0.2,0.7,0.4,1,0.7V709.3z M1953.4,666.3c-2.6,0-4.8-1.2-7-2.1l7-12.6V666.3z M1953.4,645.1c-0.7,1.1-2,2.1-1.8,3.6l-5.8,10.5
	V644c0.1-0.5,0.2-1.1,0.3-1.7c1.2,0,2.7-0.2,4.1,0.1c1,0.2,2,0.7,3.1,1.3V645.1z M1965.4,708.2c-0.4,0.4-0.7,0.7-1,1
	c-2,0-4.1,0-6.2,0c-0.3-0.3-0.7-0.7-1.4-1.4c0-2.6,0-5.6,0-8.5c0-9.2,0-18.5,0-28.1c3.2,0.4,6,1.2,8.6,2.3V708.2z M1965.4,668.1
	c-2.4,1-4.5-0.7-6.6-0.7c-0.4,0-0.7,0-1.1,0l7.8-14V668.1z M1965.4,647.2l-0.6,1.1c-0.3,0-0.6,0.1-1,0.1c-0.3,0.5-0.9,1-1,1.6
	c-0.2,0.9-0.3,1.9-0.5,2.8l-5.3,9.7c-0.1-0.1-0.2-0.1-0.4-0.2v-13.8c0.1,0,0.1,0,0.2,0c0-1,0-1.9,0-2.9l0.5-0.9
	c2.2,0.3,4.2,0.6,6.2,0.9c0.2,0,0.2,0.5,0.3,0.8c0.5,0,1,0,1.5,0c0.1,0.2,0.1,0.4,0.2,0.5V647.2z M1999.6,664.4c0,5.3,0,10.4,0,15.8
	c-3.2,1.1-5.1-1.4-7.7-2.1c0-1.1,0-2.2,0-3.3C1996.4,672.9,1995.2,666.7,1999.6,664.4z M1980,652.7c0-0.5,0.8-1,1.3-1.6
	c2.2,0.9,3.9,1.7,5.9,2.5c-2.3,4.5-4.4,8.7-6.6,12.9c-0.2-0.1-0.4-0.1-0.7-0.2C1979.9,661.8,1979.9,657.2,1980,652.7z M1976.6,658.6
	c0,4,0,8.1,0,13c-2.4-0.5-4.5-1-6.7-1.5c-0.6-2.8,1.6-4.6,2.4-6.8C1975.2,663,1973.8,659,1976.6,658.6z M1968.7,648.4
	c2.1-0.6,3.8,1.5,5.8,1c0.5,1.9,0.3,3.3-0.7,4.8c-2.2,3.2-2.3,7.4-5.1,10.3V648.4z M1976.8,709.2c-2.7,0-5.2,0-7.9,0
	c0-1.9-0.1-3.8-0.2-5.7V675c0.3-0.2,0.5-0.5,0.7-0.7c2.1,0.8,4.1,1.5,6.6,2.4c0.2,1.8,0.7,3.8,0.8,5.8
	C1976.8,691.3,1976.8,700.2,1976.8,709.2z M1987.6,709.3c-2.3,0-4.4,0-6.4,0c-0.5-0.5-0.8-0.8-1.3-1.3c0-9.3,0-18.8,0-28.5
	c3.1-0.5,5.1,1.9,7.7,2.9C1987.6,691.3,1987.6,700.1,1987.6,709.3z M1987.6,675.7c-2.1-0.5-3.8-0.9-5.9-1.4
	c0.1-5.2,3.2-8.8,5.9-12.7C1987.6,666,1987.6,670.4,1987.6,675.7z M1992,655.6c2.2-0.9,3.9,0.3,5.8,1.2c-0.1,4.9-4.3,8.1-5.3,12.6
	c-0.7-0.1-1.2-0.2-1.7-0.3c1-3.5,2-6.8-0.3-10C1991.1,657.9,1991.6,656.7,1992,655.6z M1999.8,709.3c-2.8,0-5.2,0-7.7,0
	c-1.9-8.6-2.1-10.7,0.2-26.4c2.7,1.6,5.2,3.1,7.5,4.5C1999.8,694.9,1999.8,701.9,1999.8,709.3z M2010.5,709.2c-2.7,0-5.1,0-7.5,0
	c0-7,0-13.9,0-21.2c2.8,1.3,5.2,2.5,7.5,3.6C2010.5,697.6,2010.5,703.5,2010.5,709.2z M2010.6,684.7c-1.6-0.5-2.9-0.9-4.2-1.3
	c-0.4,0.3-1,0.7-1.4,1c-1.9-0.4-2.5-1.6-2.1-3.6c0.3-0.1,0.8-0.4,1.7-0.8c1.8-3.9,3.8-8.1,6-12.8
	C2010.6,673.1,2010.6,678.7,2010.6,684.7z M2004.9,670.7c-2.3-3.1-2.2-6.4-2-9.9c0.4-0.3,0.9-0.7,1.7-1.3c2-0.5,4.2,0,6.5,1.6
	C2009,664.2,2007.5,667.7,2004.9,670.7z M2020.5,663.5c0.8,1.9,0.4,3.7-0.7,5c-2.1,2.3-2.7,5.2-3.9,7.8c-0.2,0.3-0.3,0.7-0.6,1.5
	c-0.6-5.3-1.1-10.1-1.5-14.8C2016.2,661.1,2018.2,663.9,2020.5,663.5z M2021.6,709.2c-2,0.5-4.3,0-6.5,0.3c-0.5-0.8-1.3-1.5-1.3-2.1
	c-0.1-4.2-0.1-8.5-0.1-12.6c3.3-1.3,5.2,1.4,7.9,1.8C2021.6,700.7,2021.6,704.8,2021.6,709.2z M2022.7,689.2c-2.7,0.7-4.9-0.1-7-2.4
	c0.2-5.1,4.3-8.9,5.3-13.9c0-0.2,0.8-0.4,1.8-0.7C2022.7,678.1,2022.7,683.5,2022.7,689.2z M2024.7,667.8c0.5-0.2,1.3-0.5,2.8-1.1
	c1,0.4,2.7,1.1,4.6,1.9c-1.3,5-3.1,9.4-5.6,14.1c-0.7-1.2-1.1-2-1.7-3.1c0.1-2-0.1-4.1,0.8-6.4
	C2026.2,671.9,2025.1,669.9,2024.7,667.8z M2033.7,709.2c-2.5,0-5,0-7.6,0c0-3.1,0-6.3,0-9.8c1.7,0.4,3.4,0.7,5.5,1.2
	c0.8,0.8,1.5,1.5,2.1,2.1C2033.7,704.9,2033.7,707,2033.7,709.2z M2033.8,695.4c-2.6-0.8-5.1-1.6-7.8-2.4c-0.3-1.4-0.1-2.7,0.9-4.5
	c2.2-3.8,3.7-8,5.6-12.2c0.1,0,0.4,0,1.1,0C2034,682.5,2033.6,688.7,2033.8,695.4z M2036.9,671.8c2.3-0.3,4.9,0.5,6.9,2.2
	c-2.1,5.1-4.3,10.1-6.4,15.2c-0.2,0-0.3-0.1-0.5-0.1C2036.9,683.4,2036.9,677.6,2036.9,671.8z M2043.6,709.2c-2.2,0-4.4,0-6.6,0
	c0-1.7,0-3.2,0-5.2c2.4,1.4,4.5,2.6,6.8,4C2043.7,708.4,2043.7,708.7,2043.6,709.2z M2037.7,696.8c2.1-5.2,4.2-10.3,6.3-15.3
	c0.2,0.1,0.4,0.1,0.5,0.2c0.1,0.1,0.3,0.2,0.3,0.4c0,6.1,0,12.1,0,18.3C2041.4,700.7,2039.5,698.7,2037.7,696.8z M2048,676.6
	c0.3-0.3,0.9-0.8,1.7-1.5c0.7,0.6,1.4,1.4,2.2,1.8c0.8,0.4,1.8,0.5,2.8,0.8c0,1.4,0,2.8,0,4c-2.5,4-4.1,8.2-5.2,12.8
	c-0.7-0.1-1-0.1-1.5-0.2C2048,688.5,2048,682.8,2048,676.6z M2056.7,706.2c-3.2,0.6-5.3-1.8-8.1-3.2c1.2-2.9,2.4-5.7,3.6-8.4
	c1.1-2.5,1.7-5.4,4.6-8.1C2056.7,693.7,2056.7,699.8,2056.7,706.2z M2059.8,697.8c0-5.8,0-11.5,0-17.4c0.9-0.1,1.6-0.1,1.9-0.1
	c1.4,1.4,2.6,2.6,4.1,4.1c-0.9,3.9-2.8,7.9-3.1,12.3c0,0.7-1.2,1.3-1.8,1.8c-0.5-0.2-0.7-0.2-0.8-0.3
	C2060,698.1,2059.8,698,2059.8,697.8z M2067.4,709.2c0,0.4-0.7,0.7-1.1,1.1c-2,0-4.2,0-6.4,0c0-1.2,0-2.3,0-3.6
	c0.2-0.1,0.7-0.2,1.3-0.5c2.8-4.4,2.9-10.2,6.2-15.5C2067.5,697.4,2067.5,703.3,2067.4,709.2z M2071,686.5c1.1,0,2.2,0,3.1,0
	c1.3,0.9,2.5,1.6,3.9,2.6c-2.3,5.3-4.4,10.3-7,16.3C2071,698.4,2071,692.5,2071,686.5z M2078.6,708.9c-1,1.8-2.4,1.7-3.6,1.4
	c-0.8-0.2-1.6-0.9-2.2-1.3c1.6-3.9,3-7.6,4.6-11.5c0.1,0,0.6,0,1.2,0C2078.6,701.3,2078.6,705.1,2078.6,708.9z M2082,705.4
	c0-4.5,0-9.1,0-14.1c2,0.7,3.9,1.5,5.8,2.2c-0.1,2.7-1,4.6-2.1,6.5c-1,1.7-1.6,3.6-2.4,5.4C2082.9,705.4,2082.6,705.4,2082,705.4z
	 M2087,710.3c-0.8-0.2-1.5-0.9-2.4-1.5c1.8-3.6,3.6-7,5.8-11.3c0.8,4.4,0.3,7.9,0.5,11C2089.6,710.7,2088.2,710.5,2087,710.3z
	 M2094.1,710.2c-0.5-0.5-0.9-0.9-1.2-1.2c0-3.8,0-7.6,0-11.5c1.6,0,3,0,3.6,0c2.3,1.2,4.1,1.9,5.6,2.9c1.5,0.9,2.8,2,4.3,3
	c1.6,1,3.3,1.8,4.7,3c1.1,0.9,1.9,2.3,3.1,3.9C2107.2,710.2,2100.7,710.2,2094.1,710.2z"/>
<image style="overflow:visible;" width="170" height="245" xlink:href="../../../../../../Users/iliashapiro/Desktop/Screen Shot 2019-03-06 at 9.55.11 am.png"  transform="matrix(6.4165 0 0 6.4165 2502.4653 474.3333)">
</image>
<image style="overflow:visible;" width="193" height="548" xlink:href="../../../../../../Users/iliashapiro/Desktop/Screen Shot 2019-03-06 at 9.54.31 am.png"  transform="matrix(1 0 0 1 2650.2803 54.8333)">
</image>
</svg>
