<?xml version="1.0" encoding="utf-8"?>
<!-- Generator: Adobe Illustrator 21.0.2, SVG Export Plug-In . SVG Version: 6.00 Build 0)  -->
<svg version="1.1" id="Layer_1" xmlns="http://www.w3.org/2000/svg" xmlns:xlink="http://www.w3.org/1999/xlink" x="0px" y="0px"
	 viewBox="0 0 2198.4 935.2" style="enable-background:new 0 0 2198.4 935.2;" xml:space="preserve">
<style type="text/css">
	.st0{fill:#FFFFFF;}
</style>
<g>
	
		<image style="overflow:visible;opacity:0.19;" width="1242" height="778" xlink:href="E9997C50988FE1E9.png"  transform="matrix(0.24 0 0 0.24 1441.5251 614.801)">
	</image>
	<g>
		<g>
			<path class="st0" d="M1630,775.2c-10.9-0.1-19.7-4.5-27.4-12.1c-2.1-2-5.2-3.1-7.9-4.3c-5.3-2.4-11.3-3.8-15.9-7.2
				c-4.4-3.3-8.4-4.9-14-4.7c-13.8,0.5-24.1-10.4-23.8-24.3c0.3-14.1,12.9-25,26.8-22.9c3.4,0.5,5.6-0.1,8-2.5
				c6.2-6.2,14-9.3,22.7-9.7c4.2-0.2,6.1-1.9,8.1-5.3c10.7-18.6,27.1-28.1,48.3-27c21.5,1.1,37.4,12.2,45.4,32.2
				c3.6,9,6.6,16.5,15.6,22.4c10.2,6.6,12.6,18.3,8.4,30.2c-4,11.4-12.2,17.6-24.2,19.3c-3,0.4-6.2,1.5-8.7,3.2
				c-10.1,6.9-20.9,8.9-32.6,5.6c-3.4-1-5.9-0.6-8.9,1.4C1644.1,773.4,1637.4,775.4,1630,775.2z"/>
			<circle class="st0" cx="1504.4" cy="715.6" r="9.6"/>
			<circle class="st0" cx="1526.7" cy="741.4" r="7.4"/>
		</g>
	</g>
</g>
<g>
	<g>
		
			<image style="overflow:visible;opacity:0.19;" width="802" height="550" xlink:href="E9997C50988FE1EA.png"  transform="matrix(0.24 0 0 0.24 520.8738 97.7181)">
		</image>
		<g>
			<path class="st0" d="M631.6,203.5c15.1,0,30.1,0,45.2,0c11.7,0,20.9-7.5,23-18.4c3.1-15.6-9.9-29.1-26-26.8
				c-2.2,0.3-3.1-0.3-4-2.1c-6.5-13.3-21.1-20.7-35.3-17.9c-14.8,2.9-25.6,14.8-26.8,29.7c-0.2,1.9-0.8,2.3-2.5,2.3
				c-6.9,0.1-12.1,3.2-15.2,9.4c-0.7,1.3-1.2,2-3,1.7c-6.7-0.9-12.5,3.6-13,9.9c-0.5,6.6,4.4,11.9,11.4,12c10,0.1,20,0,29.9,0
				C620.8,203.5,626.2,203.5,631.6,203.5z"/>
		</g>
	</g>
	<g>
		
			<image style="overflow:visible;opacity:0.19;" width="964" height="631" xlink:href="E9997C50988FE1EB.png"  transform="matrix(0.24 0 0 0.24 275.3539 142.3581)">
		</image>
		<g>
			<g>
				<path class="st0" d="M438.2,257.9c13.2,8.5,31,3.3,35.1-15.5c6.1,0.6,11.8-0.6,16.1-5.4c3-3.3,4.3-7.3,4.2-11.8
					c-0.2-10-7.2-15.7-20.5-16.3c-0.2-1.4-0.4-2.9-0.7-4.4c-2.3-11.1-9-18.4-19.9-21.1c-11.1-2.7-20.5,0.8-27.6,9.8
					c-1.8,2.4-3.4,2.9-6.2,2.2c-10-2.3-18.8,1.7-23.8,10.7c-1,1.9-2.2,2.8-4.4,2.9c-6,0.3-11.5,2.6-15.7,6.9c-2.5,2.6-5,3.2-8.5,3.1
					c-8-0.3-14.6,5-16.5,12.6c-1.8,7.2,1.7,15.4,8.6,18.6c3,1.4,6.7,1.2,10,1.9c1.6,0.3,3.5,0.6,4.6,1.7c8.2,7.8,17.5,10.1,28.3,6.9
					c1-0.3,2.4-0.3,3.2,0.3c12.8,9.2,21.7,8.5,33-2.9C437.7,258.2,437.9,258.1,438.2,257.9z"/>
				<circle class="st0" cx="334.6" cy="226.3" r="6.1"/>
			</g>
		</g>
	</g>
	<g>
		
			<image style="overflow:visible;opacity:0.19;" width="804" height="550" xlink:href="E9997C50988FE1FE.png"  transform="matrix(0.24 0 0 0.24 402.3139 150.0381)">
		</image>
		<g>
			<path class="st0" d="M513.2,255.9c15.1,0,30.1,0,45.2,0c11.7,0,20.9-7.5,23-18.4c3.1-15.6-9.9-29.1-26-26.8
				c-2.2,0.3-3.1-0.3-4-2.1c-6.5-13.3-21.1-20.7-35.3-17.9c-14.8,2.9-25.6,14.8-26.8,29.7c-0.2,1.9-0.8,2.3-2.5,2.3
				c-6.9,0.1-12.1,3.2-15.2,9.4c-0.7,1.3-1.2,2-3,1.7c-6.7-0.9-12.5,3.6-13,9.9c-0.5,6.6,4.4,11.9,11.4,12c10,0.1,20,0,29.9,0
				C502.3,255.9,507.8,255.9,513.2,255.9z"/>
		</g>
	</g>
</g>
<g>
	
		<image style="overflow:visible;opacity:0.19;" width="1326" height="792" xlink:href="E9997C50988FE1FF.png"  transform="matrix(0.24 0 0 0.24 1483.1681 38.9683)">
	</image>
	<g>
		<path class="st0" d="M1663.7,79.1c27.4,1.5,46.1,12.5,57.5,34.7c2,3.8,4.2,5.8,8.5,6.5c12.2,2,21.4,8.7,28.6,18.8
			c1.8,2.5,5.4,4.1,8.5,5.1c12.3,4,19.5,12.5,21.1,25c1.6,12.6-3.6,22.7-14.5,29.3c-8.7,5.2-17.9,5.1-27.3,1.6
			c-2.3-0.9-5.5-1.2-7.8-0.4c-13,4.5-25.5,3.8-37.3-3.4c-2.6-1.6-4.4-1.6-7.2-0.3c-19.3,9.2-38.6,8.9-57.5-1.1
			c-2.9-1.5-4.9-1.4-7.6,0.4c-13.7,9-28.2,9.7-42.9,2.7c-3-1.4-5.1-1.7-8.1,0.2c-9.7,6.3-21.5,5.8-30.5-0.8
			c-8.9-6.5-12.9-17.7-10.2-28.4c2.8-11,11.7-18.5,23.5-20.3c1.8-0.3,4.1-2,4.8-3.6c7.6-17.3,20.7-26.5,39.6-26.9
			c3.7-0.1,4.8-2.2,6.1-4.7c7.5-14.7,19.1-25,34.7-30.3C1652.3,80.8,1659.4,80,1663.7,79.1z"/>
	</g>
</g>
<g>
	
		<image style="overflow:visible;opacity:0.19;" width="1207" height="754" xlink:href="E9997C50988FE1F2.png"  transform="matrix(0.24 0 0 0.24 1820.368 39.2083)">
	</image>
	<g>
		<path class="st0" d="M1980.6,193.8c-27.8,0-55.7,0-83.5,0c-3,0-6,0-8.9-0.4c-8-0.9-13.7-6.6-14.6-14.2
			c-0.9-7.5,3.2-14.8,10.7-17.3c3.6-1.2,4.8-3,5.3-6.6c2.6-18.7,18.4-31.2,35.8-29.9c7.6,0.6,7.6,0.1,9.1-7.1
			c4.5-22.9,25.1-39.4,48.8-39c23,0.3,43.5,17.9,46.9,40.6c0.7,4.4,2.3,6,6.7,5.7c12.9-0.9,22.5,4.7,30.2,14.7
			c1.6,2.1,5.1,3.3,8,3.8c16.1,3,25.2,17.4,20.1,32.8c-3,9.1-9.6,14.6-19,16.2c-4.1,0.7-8.4,0.7-12.6,0.7
			C2036,193.9,2008.3,193.8,1980.6,193.8z"/>
	</g>
</g>
<g>
	
		<image style="overflow:visible;opacity:0.19;" width="3392" height="1682" xlink:href="E9997C50988FE1F3.png"  transform="matrix(0.24 0 0 0.24 1273.9043 638.623)">
	</image>
	<g>
		<g>
			<path class="st0" d="M1695.2,1015.9c-87.6,0-175.3,0.3-262.9-0.3c-15.1-0.1-31-1-45-5.9c-34.5-12-53.2-49.3-44.9-85
				c8.2-35.5,41.6-60.8,78.2-55.5c17.9,2.6,28-0.9,39-15.6c18.7-24.8,45.6-36.8,77.2-34.7c13.2,0.9,18.4-4,22.2-16.5
				c19.9-66.7,64.5-108.7,132.9-120.6c66.8-11.6,122.7,11.2,164.1,65.5c8.6,11.3,14.9,14.4,29,8.6c52.3-21.2,106.3,3.3,128.5,55.4
				c3.9,9.2,11.2,18,19.2,24.1c34.3,26.4,49.3,66,38.8,106.4c-10.5,40.6-42,67.2-86.2,72.4c-10.1,1.2-20.3,1.6-30.4,1.6
				C1868.2,1015.9,1781.7,1015.9,1695.2,1015.9C1695.2,1015.9,1695.2,1015.9,1695.2,1015.9z"/>
			<circle class="st0" cx="1359.3" cy="847.4" r="32.4"/>
			<circle class="st0" cx="1434.3" cy="934" r="25"/>
		</g>
	</g>
</g>
<g>
	
		<image style="overflow:visible;opacity:0.19;" width="1716" height="926" xlink:href="E9997C50988FE1F4.png"  transform="matrix(0.24 0 0 0.24 -124.6857 74.8518)">
	</image>
	<g>
		<g>
			<path class="st0" d="M98.5,270.8c-40.5,0-81,0.1-121.4-0.1c-7,0-14.3-0.5-20.8-2.7c-16-5.5-24.6-22.8-20.7-39.3
				c3.8-16.4,19.2-28.1,36.1-25.6c8.3,1.2,12.9-0.4,18-7.2c8.6-11.5,21.1-17,35.6-16c6.1,0.4,8.5-1.8,10.2-7.6
				c9.2-30.8,29.8-50.2,61.4-55.7c30.9-5.4,56.7,5.2,75.8,30.2c4,5.2,6.9,6.6,13.4,4c24.1-9.8,49.1,1.5,59.3,25.6
				c1.8,4.2,5.2,8.3,8.9,11.1c15.8,12.2,22.8,30.5,17.9,49.1c-4.9,18.8-19.4,31.1-39.8,33.4c-4.7,0.5-9.4,0.7-14.1,0.7
				C178.4,270.8,138.5,270.7,98.5,270.8C98.5,270.7,98.5,270.8,98.5,270.8z"/>
			<circle class="st0" cx="-56.6" cy="192.9" r="14.9"/>
			<circle class="st0" cx="-22" cy="232.9" r="11.5"/>
		</g>
	</g>
</g>
<g>
	
		<image style="overflow:visible;opacity:0.19;" width="1365" height="767" xlink:href="E9997C50988FE1F5.png"  transform="matrix(0.24 0 0 0.24 -8.7679 146.9937)">
	</image>
	<g>
		<g>
			<path class="st0" d="M173.1,304.9c-30.6,0-61.3,0.1-91.9-0.1c-5.3,0-10.8-0.4-15.7-2.1c-12.1-4.2-18.6-17.2-15.7-29.7
				c2.9-12.4,14.6-21.2,27.3-19.4c6.2,0.9,9.8-0.3,13.6-5.5c6.5-8.7,15.9-12.9,27-12.1c4.6,0.3,6.4-1.4,7.8-5.8
				c7-23.3,22.5-38,46.5-42.2c23.4-4.1,42.9,3.9,57.3,22.9c3,3.9,5.2,5,10.1,3c18.3-7.4,37.1,1.1,44.9,19.4c1.4,3.2,3.9,6.3,6.7,8.4
				c12,9.2,17.2,23.1,13.6,37.2c-3.7,14.2-14.7,23.5-30.1,25.3c-3.5,0.4-7.1,0.5-10.6,0.5C233.6,304.9,203.4,304.9,173.1,304.9
				C173.1,304.9,173.1,304.9,173.1,304.9z"/>
			<circle class="st0" cx="55.7" cy="246" r="11.3"/>
			<circle class="st0" cx="81.9" cy="276.2" r="8.7"/>
		</g>
	</g>
</g>
<g>
	
		<image style="overflow:visible;opacity:0.19;" width="942" height="576" xlink:href="C32EF7A60CCBA658.png"  transform="matrix(0.24 0 0 0.24 1732.9352 28.68)">
	</image>
	<g>
		<g>
			<path class="st0" d="M1864.6,140.8c-18.7,0-37.4,0.1-56.1-0.1c-3.2,0-6.6-0.2-9.6-1.3c-7.4-2.6-11.4-10.5-9.6-18.2
				c1.8-7.6,8.9-13,16.7-11.8c3.8,0.6,6-0.2,8.3-3.3c4-5.3,9.7-7.9,16.5-7.4c2.8,0.2,3.9-0.8,4.7-3.5c4.3-14.2,13.8-23.2,28.4-25.7
				c14.3-2.5,26.2,2.4,35,14c1.8,2.4,3.2,3.1,6.2,1.8c11.2-4.5,22.7,0.7,27.4,11.8c0.8,2,2.4,3.8,4.1,5.2
				c7.3,5.6,10.5,14.1,8.3,22.7c-2.3,8.7-9,14.4-18.4,15.5c-2.2,0.3-4.3,0.3-6.5,0.3C1901.6,140.8,1883.1,140.8,1864.6,140.8
				C1864.6,140.8,1864.6,140.8,1864.6,140.8z"/>
			<circle class="st0" cx="1792.9" cy="104.8" r="6.9"/>
			<circle class="st0" cx="1808.9" cy="123.3" r="5.3"/>
		</g>
	</g>
</g>
<g>
	
		<image style="overflow:visible;opacity:0.19;" width="968" height="635" xlink:href="C32EF7A60CCBA652.png"  transform="matrix(0.24 0 0 0.24 1372.9745 133.72)">
	</image>
	<g>
		<g>
			<path class="st0" d="M1523.1,260c-7.8,0-14.1-3.2-19.6-8.6c-1.5-1.5-3.7-2.2-5.7-3.1c-3.8-1.7-8.1-2.8-11.4-5.2
				c-3.2-2.4-6-3.5-10.1-3.4c-9.9,0.3-17.3-7.5-17.1-17.5c0.2-10.1,9.2-17.9,19.2-16.5c2.4,0.4,4.1-0.1,5.8-1.8
				c4.5-4.4,10.1-6.7,16.3-7c3-0.1,4.4-1.4,5.8-3.8c7.7-13.3,19.4-20.1,34.7-19.4c15.4,0.8,26.9,8.7,32.6,23.1
				c2.6,6.5,4.7,11.9,11.2,16c7.3,4.7,9,13.1,6.1,21.7c-2.8,8.2-8.8,12.7-17.3,13.9c-2.1,0.3-4.4,1.1-6.2,2.3c-7.2,5-15,6.4-23.4,4
				c-2.4-0.7-4.3-0.4-6.4,1C1533.2,258.7,1528.4,260.1,1523.1,260z"/>
			<circle class="st0" cx="1432.9" cy="217.2" r="6.9"/>
			<circle class="st0" cx="1448.9" cy="235.7" r="5.3"/>
		</g>
	</g>
</g>
<g>
	<g>
		
			<image style="overflow:visible;opacity:0.19;" width="1400" height="855" xlink:href="C32EF7A60CCBA653.png"  transform="matrix(0.24 0 0 0.24 485.907 671.2413)">
		</image>
		<g>
			<g>
				<path class="st0" d="M633.4,849.8c-12.6,0-25.1,0-37.7,0c-10.8,0-18.7-4.7-24.4-13.9c-1.4-2.3-3.9-4.4-6.4-5.4
					c-23.7-9.6-32.3-32.7-20.8-55.7c1.1-2.3,1.4-5.6,0.8-8.1c-5.4-20.9,10-37.4,31.4-33.7c2.4,0.4,5.9-0.6,7.6-2.2
					c33.8-32.6,83.1-23,101.7,20c1.5,3.6,3.4,5.5,7.5,6.2c9.2,1.7,16.8,6.6,22.2,14.2c2.4,3.4,4.8,5.1,9.1,5.4
					c9.2,0.6,15.8,8.1,15.9,17.2c0.1,9-6.1,17.1-15.2,17.9c-5,0.5-8.2,2.4-10.5,6.4c-0.2,0.4-0.5,0.7-0.8,1
					c-8.6,7.3-17,14.6-24.1,23.7c-3.3,4.3-11.3,6.2-17.4,6.7C659.4,850.5,646.4,849.8,633.4,849.8z"/>
				<circle class="st0" cx="771.6" cy="780.6" r="12"/>
				<circle class="st0" cx="799.4" cy="812.7" r="9.3"/>
			</g>
		</g>
	</g>
	<g>
		
			<image style="overflow:visible;opacity:0.19;" width="1138" height="725" xlink:href="C32EF7A60CCBA654.png"  transform="matrix(0.24 0 0 0.24 -9.933 609.3213)">
		</image>
		<g>
			<path class="st0" d="M155.6,757c-24.6,0-49.3,0.1-73.9,0C62.6,757,47.5,744.8,44,726.9c-5-25.6,16.2-47.5,42.5-43.8
				c3.6,0.5,5.1-0.4,6.6-3.4c10.6-21.8,34.5-33.8,57.7-29.3c24.2,4.7,41.9,24.1,43.9,48.6c0.2,3,1.3,3.7,4.1,3.8
				c11.3,0.2,19.7,5.3,24.8,15.5c1.1,2.1,2,3.2,4.8,2.9c11-1.5,20.5,5.9,21.3,16.2c0.8,10.8-7.2,19.5-18.6,19.7
				c-16.3,0.2-32.7,0.1-49,0.1C173.3,757,164.5,757,155.6,757z"/>
		</g>
	</g>
	<g>
		
			<image style="overflow:visible;opacity:0.19;" width="1401" height="856" xlink:href="C32EF7A60CCBA655.png"  transform="matrix(0.24 0 0 0.24 328.227 682.5213)">
		</image>
		<g>
			<g>
				<path class="st0" d="M472,846.1c-21.6,13.9-50.7,5.4-57.4-25.3c-10,1-19.3-1-26.4-8.9c-4.9-5.4-7.1-12-6.9-19.3
					c0.4-16.4,11.8-25.6,33.5-26.7c0.3-2.3,0.6-4.7,1.1-7.1c3.8-18.1,14.7-30.2,32.5-34.5c18.1-4.4,33.6,1.3,45.1,16
					c3,3.9,5.5,4.7,10.2,3.7c16.3-3.7,30.8,2.9,39,17.5c1.7,3,3.6,4.6,7.2,4.7c9.9,0.5,18.8,4.2,25.7,11.2c4.1,4.2,8.2,5.3,13.9,5.1
					c13.1-0.4,23.8,8.1,26.9,20.7c2.9,11.8-2.7,25.2-14.1,30.5c-4.9,2.3-10.9,1.9-16.3,3.1c-2.6,0.5-5.8,1-7.6,2.7
					c-13.3,12.8-28.7,16.5-46.3,11.3c-1.6-0.5-4-0.4-5.2,0.5c-20.9,15.1-35.6,13.9-54-4.7C472.8,846.5,472.5,846.4,472,846.1z"/>
				<circle class="st0" cx="641.4" cy="794.4" r="9.9"/>
			</g>
		</g>
	</g>
	<g>
		
			<image style="overflow:visible;opacity:0.19;" width="1137" height="725" xlink:href="C32EF7A60CCBA656.png"  transform="matrix(0.24 0 0 0.24 183.987 695.0013)">
		</image>
		<g>
			<path class="st0" d="M349.3,842.7c-24.6,0-49.3,0.1-73.9,0c-19.1-0.1-34.2-12.2-37.7-30.1c-5-25.6,16.2-47.5,42.5-43.8
				c3.6,0.5,5.1-0.4,6.6-3.4c10.6-21.8,34.5-33.8,57.7-29.3c24.2,4.7,41.9,24.1,43.9,48.6c0.2,3,1.3,3.7,4.1,3.8
				c11.3,0.2,19.7,5.3,24.8,15.5c1.1,2.1,2,3.2,4.8,2.9c11-1.5,20.5,5.9,21.3,16.2c0.8,10.8-7.2,19.5-18.6,19.7
				c-16.3,0.2-32.7,0.1-49,0.1C367.1,842.7,358.2,842.7,349.3,842.7z"/>
		</g>
	</g>
	<g>
		
			<image style="overflow:visible;opacity:0.19;" width="1884" height="1002" xlink:href="C32EF7A60CCBA657.png"  transform="matrix(0.24 0 0 0.24 -11.613 681.5613)">
		</image>
		<g>
			<g>
				<path class="st0" d="M240.7,895.8c-45.6,0-91.2,0.1-136.8,0c-30.2-0.1-52.7-16.8-60.3-44.5c-8.6-31.1,8.5-64.2,38.7-73.9
					c6-2,9.8-4.5,12.4-11c6.8-17.6,25-27.1,43.5-23.1c5.5,1.2,9.4,0.3,13.9-3.3c41.1-32.6,99.9-20.3,125.1,26.3
					c3.8,7,7.5,9.3,15.7,8.4c23.5-2.4,47.2,13.2,56.3,36.2c2.7,6.8,5.9,11.6,13.4,13.8c9.6,2.8,15.7,10.5,20.4,19.6
					c1.5,2.9,4.4,6,7.4,7.2c11.7,4.8,17.5,13.5,15.9,25.3c-1.5,11.3-10,18.9-22.6,19c-40.8,0.2-81.6,0.1-122.4,0.1
					C254.3,895.8,247.5,895.8,240.7,895.8z"/>
				<ellipse class="st0" cx="381.3" cy="808.8" rx="16.1" ry="16.6"/>
				<ellipse class="st0" cx="418.6" cy="853.1" rx="8.8" ry="9"/>
			</g>
		</g>
	</g>
</g>
</svg>
