<?xml version="1.0" encoding="utf-8"?>
<!-- Generator: Adobe Illustrator 21.0.2, SVG Export Plug-In . SVG Version: 6.00 Build 0)  -->
<svg version="1.1" id="Layer_1" xmlns="http://www.w3.org/2000/svg" xmlns:xlink="http://www.w3.org/1999/xlink" x="0px" y="0px"
	 viewBox="0 0 152.7 47.2" style="enable-background:new 0 0 152.7 47.2;" xml:space="preserve">
<style type="text/css">
	.st0{fill:#FFFFFF;}
</style>
<g>
	<path class="st0" d="M59.2,29.6c-0.3,1.9-1.1,3.4-2.3,4.5c-1.2,1.1-2.8,1.6-4.8,1.6c-1.3,0-2.3-0.2-3.3-0.6c-0.9-0.4-1.8-1-2.4-1.8
		s-1.2-1.7-1.5-2.8c-0.3-1.1-0.5-2.3-0.5-3.7c0-1.4,0.2-2.6,0.5-3.8c0.4-1.1,0.9-2,1.6-2.8c0.7-0.8,1.5-1.4,2.5-1.8
		c0.9-0.4,2-0.6,3.3-0.6c1.9,0,3.4,0.5,4.5,1.4c1.1,0.9,1.8,2.3,2.2,4l-1.8,0.5c-0.2-0.6-0.3-1.2-0.5-1.7s-0.5-0.9-0.9-1.3
		c-0.4-0.4-0.9-0.7-1.4-0.9c-0.5-0.2-1.3-0.3-2-0.3c-1,0-1.9,0.2-2.6,0.5c-0.7,0.4-1.3,0.9-1.8,1.5c-0.5,0.6-0.9,1.4-1,2.3
		c-0.2,0.9-0.3,1.9-0.3,2.9c0,1,0.1,2,0.3,2.9c0.2,0.9,0.5,1.6,1,2.3c0.5,0.6,1,1.2,1.8,1.6c0.7,0.4,1.6,0.5,2.7,0.5
		c1.6,0,2.8-0.4,3.6-1.2c0.8-0.8,1.3-1.9,1.5-3.2L59.2,29.6L59.2,29.6z"/>
	<path class="st0" d="M73.8,32.8c-0.3,0.3-0.6,0.7-1,1c-0.4,0.3-0.9,0.6-1.3,0.9s-1,0.5-1.6,0.6c-0.6,0.2-1.3,0.2-2,0.2
		c-1.8,0-3.2-0.4-4.2-1.3c-1.1-0.9-1.6-2.1-1.6-3.8c0-1.1,0.2-2,0.7-2.8c0.5-0.7,1.1-1.3,1.9-1.7c0.8-0.4,1.7-0.7,2.7-0.9
		c1-0.2,2-0.2,3.1-0.3l3.3-0.2V24c0-1.6-0.3-2.8-0.9-3.6c-0.6-0.8-1.8-1.2-3.4-1.2c-0.8,0-1.5,0.1-2,0.2c-0.5,0.2-1,0.3-1.4,0.5
		c-0.4,0.2-0.7,0.5-0.9,0.9c-0.2,0.3-0.4,0.7-0.5,1.1l-1.7-0.2c0.6-2.7,2.8-4.1,6.6-4.1c1.2,0,2.2,0.2,3,0.4c0.8,0.3,1.5,0.7,2,1.3
		s0.9,1.2,1.1,2c0.2,0.8,0.3,1.6,0.3,2.7V35H74v-2.2C74,32.8,73.8,32.8,73.8,32.8z M73.8,26.2l-3.1,0.2c-1.3,0.1-2.3,0.2-3.1,0.3
		c-0.9,0.2-1.6,0.5-2,0.8c-0.5,0.3-0.9,0.8-1.1,1.3s-0.3,1.1-0.3,1.7c0,1,0.3,1.9,0.9,2.5c0.5,0.6,1.6,0.9,3,0.9
		c0.7,0,1.4-0.1,2.1-0.2c0.7-0.2,1.3-0.4,1.7-0.8c0.4-0.3,0.7-0.5,0.9-0.8s0.5-0.5,0.6-0.9c0.2-0.3,0.3-0.7,0.3-1.1
		c0.1-0.4,0.1-0.9,0.1-1.4C73.8,28.7,73.8,26.2,73.8,26.2z"/>
	<path class="st0" d="M80.2,18.3h1.9V21c0.9-1.2,1.9-2,2.9-2.5c1-0.5,2.1-0.8,3.3-0.8c2,0,3.4,0.5,4.2,1.6c0.9,1.1,1.4,2.6,1.4,4.5
		V35h-1.8V24.4c0-1.8-0.3-3-0.9-3.8c-0.6-0.8-1.6-1.2-3-1.2c-0.6,0-1.3,0.2-2.1,0.4c-0.7,0.2-1.4,0.6-2,1.2
		c-0.6,0.5-1.2,1.2-1.5,1.7c-0.3,0.6-0.5,1.4-0.5,2.5V35h-1.9L80.2,18.3L80.2,18.3z"/>
	<path class="st0" d="M96.2,18.3h2.2l5.7,14.8l5.9-14.8h2l-6.8,16.8H103L96.2,18.3z"/>
	<path class="st0" d="M125.2,32.8c-0.3,0.3-0.6,0.7-1,1s-0.9,0.6-1.3,0.9c-0.5,0.2-1,0.5-1.6,0.6c-0.6,0.2-1.3,0.2-2,0.2
		c-1.8,0-3.2-0.4-4.2-1.3c-1.1-0.9-1.6-2.1-1.6-3.8c0-1.1,0.2-2,0.7-2.8c0.5-0.7,1.1-1.3,1.9-1.7c0.8-0.4,1.7-0.7,2.7-0.9
		c1-0.2,2-0.2,3.1-0.3l3.3-0.2V24c0-1.6-0.3-2.8-0.9-3.6c-0.6-0.8-1.8-1.2-3.4-1.2c-0.8,0-1.5,0.1-2,0.2c-0.5,0.2-1,0.3-1.4,0.5
		c-0.4,0.2-0.7,0.5-0.9,0.9c-0.2,0.3-0.4,0.7-0.5,1.1l-1.7-0.2c0.6-2.7,2.8-4.1,6.6-4.1c1.2,0,2.2,0.2,3,0.4c0.8,0.3,1.5,0.7,2,1.3
		c0.5,0.5,0.9,1.2,1.1,2c0.2,0.8,0.3,1.6,0.3,2.7V35h-1.9v-2.2C125.3,32.8,125.2,32.8,125.2,32.8z M125.1,26.2l-3.1,0.2
		c-1.3,0.1-2.3,0.2-3.1,0.3c-0.9,0.2-1.6,0.5-2,0.8c-0.5,0.3-0.9,0.8-1.1,1.3c-0.2,0.5-0.3,1.1-0.3,1.7c0,1,0.3,1.9,0.9,2.5
		c0.5,0.6,1.6,0.9,3,0.9c0.7,0,1.4-0.1,2.1-0.2c0.7-0.2,1.3-0.4,1.7-0.8c0.4-0.3,0.7-0.5,0.9-0.8c0.2-0.2,0.5-0.5,0.6-0.9
		c0.2-0.3,0.3-0.7,0.3-1.1c0.1-0.4,0.1-0.9,0.1-1.4V26.2z"/>
	<path class="st0" d="M132.6,30.4c0.2,1.3,0.8,2.3,1.6,2.8c0.9,0.5,2.1,0.8,3.8,0.8s2.8-0.3,3.4-0.9c0.7-0.6,1-1.4,1-2.3
		c0-0.4-0.1-0.8-0.2-1.1c-0.1-0.3-0.2-0.6-0.5-0.9c-0.2-0.3-0.6-0.5-1.1-0.7c-0.5-0.2-1.1-0.4-1.8-0.5l-2-0.3
		c-0.9-0.2-1.7-0.3-2.4-0.5c-0.7-0.2-1.3-0.5-1.8-0.9c-0.5-0.4-0.9-0.8-1.1-1.3s-0.4-1.2-0.4-2c0-0.7,0.2-1.4,0.5-2
		c0.3-0.6,0.8-1.1,1.3-1.5c0.5-0.4,1.3-0.7,2-0.9c0.8-0.2,1.6-0.3,2.5-0.3c1.2,0,2.1,0.1,2.9,0.3c0.8,0.2,1.4,0.5,1.9,0.9
		c0.5,0.4,0.9,0.9,1.2,1.4c0.2,0.5,0.5,1.1,0.6,1.6l-1.7,0.4c-0.2-0.5-0.4-0.9-0.6-1.3c-0.2-0.4-0.5-0.7-0.9-0.9
		c-0.3-0.2-0.8-0.5-1.3-0.5c-0.5-0.2-1.2-0.2-2-0.2c-0.9,0-1.6,0.1-2.2,0.2c-0.6,0.2-1.1,0.4-1.4,0.7c-0.4,0.3-0.6,0.6-0.8,1
		c-0.2,0.4-0.2,0.8-0.2,1.2s0.1,0.8,0.2,1.1c0.1,0.3,0.2,0.6,0.5,0.9c0.2,0.2,0.6,0.5,1.1,0.6c0.5,0.2,1.1,0.3,1.9,0.5l2.6,0.4
		c1.8,0.3,3,0.9,4,1.6c0.9,0.8,1.3,1.9,1.3,3.4c0,0.6-0.2,1.3-0.4,1.9c-0.3,0.6-0.7,1.1-1.3,1.5c-0.5,0.4-1.3,0.8-2,1
		c-0.8,0.2-1.7,0.4-2.8,0.4c-1,0-2-0.1-2.8-0.3c-0.9-0.2-1.6-0.5-2.3-0.9c-0.6-0.4-1.2-0.9-1.6-1.6c-0.4-0.6-0.6-1.5-0.7-2.4
		L132.6,30.4L132.6,30.4z"/>
</g>
<path class="st0" d="M33.4,6.6H16.6c-4.3,0-7.7,3.4-7.7,7.7v13.1c0,0.2,0.1,0.2,0.2,0.3l0,0C9.2,27.9,9.3,28,9.5,28s0.5-0.2,0.5-0.3
	c0.1-0.1,0.1-0.2,0.1-0.2v-0.1l0,0l0,0V14.3c0-3.5,2.9-6.4,6.4-6.4h16.8c3.5,0,6.4,2.9,6.4,6.4v15.3c0,3.5-2.9,6.4-6.4,6.4H22
	c0,0.4,0.1,0.8,0.3,1.3h11c4.3,0,7.7-3.4,7.7-7.7V14.3C41.1,10,37.6,6.6,33.4,6.6z"/>
<path class="st0" d="M30.5,9.9c-1.1-0.5-2.4-0.2-3,0.9c0,0,0,0,0,0.1V11c0,0.1-0.1,0.1-0.1,0.2L20.6,26c-0.6,0-1.3,0.2-1.9,0.5
	c-1.6,1.3-2.5,3.4-2.2,5.4c0,0.5,0.1,1.2,0.4,1.9c0.6,1.6,2,3,3.7,3.6c0.2,0.1,0.4,0,0.5-0.1c0.1-0.2,0.2-0.4,0.1-0.5
	c-0.9-2,0.1-2.7,1.2-3.7c0.5-0.4,0.9-0.9,1.3-1.3c0.9-1.4,0.6-3.2-0.4-4.4l8.1-14.1c0-0.1,0.1-0.1,0.1-0.2V13l0,0
	c0-0.1,0.1-0.1,0.1-0.2C32,11.7,31.5,10.5,30.5,9.9z M22.1,25l1.2,0.5l-0.6,1.1l-1-0.5L22.1,25z M22.8,31.1
	c-0.3,0.5-0.6,0.9-1.1,1.1c-0.9,0.7-2.2,1.9-1.9,3.7c-1.5-0.9-2.5-2.5-2.6-4.2C17,30,17.8,28.2,19,27.1c0.6-0.5,1.5-0.5,2.2-0.2
	l0.5,0.2c0,0,0.1,0,0.1,0.1C23.1,28.1,23.6,29.8,22.8,31.1z M30.7,12.5L30.7,12.5C30.7,12.6,30.7,12.6,30.7,12.5l-0.2,0.2l-6.8,12
	l-1.3-0.5l5.8-12.6v-0.1c0,0,0-0.1,0.1-0.1c0,0,0,0,0-0.1c0.3-0.6,1.1-0.9,1.7-0.5C30.7,11.1,31,11.9,30.7,12.5z"/>
<path class="st0" d="M47.4,11.9h1.3v1h-1.6c-0.4,0-0.7-0.1-1-0.2c-0.2-0.1-0.5-0.2-0.7-0.4c-0.2-0.2-0.4-0.5-0.5-0.8
	s-0.2-0.6-0.2-0.9c0-0.4,0.1-0.7,0.2-1c0.1-0.3,0.3-0.5,0.5-0.8c0.2-0.2,0.4-0.3,0.7-0.4c0.3-0.1,0.6-0.2,1-0.2h1.6v1h-1.3
	c-0.5,0-0.9,0.1-1.2,0.3c-0.2,0.2-0.2,0.5-0.2,1c0,0.2,0,0.5,0.1,0.7c0.1,0.2,0.2,0.3,0.4,0.5c0.1,0.1,0.2,0.1,0.3,0.1
	C46.9,11.9,47.1,11.9,47.4,11.9z"/>
<path class="st0" d="M53.4,12.9h-2.2c-0.6,0-1.1-0.2-1.4-0.4s-0.5-0.7-0.5-1.3V8.3h1.2v2.8c0,0.3,0.1,0.5,0.2,0.6
	c0.1,0.1,0.3,0.2,0.6,0.2h0.9V8.3h1.2V12.9z"/>
<path class="st0" d="M55.4,6.6v1.6h1c0.5,0,0.8,0.1,1.1,0.2c0.2,0.2,0.5,0.3,0.6,0.6c0.2,0.2,0.3,0.5,0.4,0.7s0.2,0.5,0.2,0.9
	c0,0.8-0.2,1.3-0.5,1.7c-0.4,0.4-0.9,0.6-1.6,0.6h-2.3V6.6H55.4z M56.1,9.2h-0.7v2.7h0.8c0.5,0,0.8-0.1,0.9-0.3
	c0.2-0.2,0.2-0.5,0.2-1s-0.1-0.9-0.3-1C56.8,9.4,56.5,9.2,56.1,9.2z"/>
<path class="st0" d="M61.4,12.9c-0.7,0-1.3-0.2-1.6-0.6c-0.4-0.4-0.5-0.9-0.5-1.7s0.2-1.3,0.5-1.7c0.4-0.4,0.9-0.6,1.6-0.6h1.7v0.9
	h-1.6c-0.4,0-0.7,0.1-0.9,0.2c-0.2,0.2-0.2,0.4-0.2,0.7h2.7V11h-2.7c0,0.3,0.1,0.5,0.2,0.7c0.2,0.2,0.4,0.2,0.9,0.2h1.6v1.1H61.4z"
	/>
<path class="st0" d="M67.3,9.7l-0.9,3.2H65l-1.6-4.6h1.3l0.9,3.3l0.9-3.3h1.3l1,3.3l1-3.3h1.2l-1.4,4.6h-1.3L67.3,9.7z"/>
<path class="st0" d="M72.8,7.8h-1.3V6.6h1.3V7.8z M72.8,12.9h-1.3V8.3h1.3V12.9z"/>
<path class="st0" d="M73.4,12h2.5c0.2,0,0.4,0,0.5-0.1c0.1-0.1,0.2-0.2,0.2-0.3c0-0.2-0.1-0.3-0.2-0.3c-0.1-0.1-0.2-0.1-0.5-0.1h-1
	c-0.6,0-1-0.1-1.3-0.3c-0.2-0.3-0.3-0.7-0.3-1.2c0-0.5,0.2-0.9,0.4-1.1c0.2-0.2,0.6-0.4,1.2-0.4h2.5v0.9h-2c-0.3,0-0.5,0-0.6,0.1
	c-0.1,0.1-0.2,0.2-0.2,0.3c0,0.2,0.1,0.2,0.2,0.3c0.1,0.1,0.2,0.1,0.4,0.1h1.1c0.5,0,0.9,0.2,1.1,0.4c0.2,0.2,0.4,0.5,0.4,1
	s-0.1,0.8-0.3,1c-0.3,0.4-0.6,0.5-0.9,0.5h-3V12z"/>
<path class="st0" d="M80.4,12.9c-0.7,0-1.3-0.2-1.6-0.6c-0.4-0.4-0.5-0.9-0.5-1.7s0.2-1.3,0.5-1.7c0.4-0.4,0.9-0.6,1.6-0.6h1.7v0.9
	h-1.6c-0.4,0-0.7,0.1-0.9,0.2c-0.1,0.2-0.2,0.5-0.2,0.8h2.7V11h-2.7c0,0.3,0.1,0.5,0.2,0.7c0.2,0.2,0.4,0.2,0.9,0.2h1.6v1H80.4z"/>
</svg>
