<?xml version="1.0" encoding="utf-8"?>
<!-- Generator: Adobe Illustrator 21.0.2, SVG Export Plug-In . SVG Version: 6.00 Build 0)  -->
<svg version="1.1" id="Layer_1" xmlns="http://www.w3.org/2000/svg" xmlns:xlink="http://www.w3.org/1999/xlink" x="0px" y="0px"
	 viewBox="0 0 180 47" style="enable-background:new 0 0 180 47;" xml:space="preserve">
<style type="text/css">
	.st0{fill:#FF2B55;}
	.st1{fill:#6D6E70;}
	.st2{fill:#A6A8AB;}
</style>
<g>
	<path class="st0" d="M66.9,32.4c-0.4,2.4-1.4,4.3-2.9,5.7s-3.6,2-6.1,2c-1.6,0-3-0.3-4.2-0.8S51.4,38,50.6,37s-1.5-2.2-1.9-3.6
		c-0.4-1.4-0.7-3-0.7-4.7c0-1.8,0.2-3.3,0.7-4.8c0.5-1.4,1.1-2.6,2-3.6s1.9-1.8,3.2-2.3c1.2-0.5,2.6-0.8,4.2-0.8
		c2.4,0,4.3,0.6,5.7,1.8c1.4,1.2,2.3,2.9,2.8,5.1l-2.3,0.6c-0.2-0.8-0.4-1.5-0.7-2.2s-0.7-1.2-1.2-1.7s-1.1-0.9-1.8-1.1
		c-0.7-0.3-1.6-0.4-2.5-0.4c-1.3,0-2.4,0.2-3.3,0.7c-0.9,0.5-1.7,1.1-2.3,1.9s-1.1,1.8-1.3,2.9c-0.3,1.1-0.4,2.4-0.4,3.7
		c0,1.3,0.1,2.6,0.4,3.7c0.3,1.1,0.7,2.1,1.3,3c0.6,0.8,1.3,1.5,2.3,2c0.9,0.5,2.1,0.7,3.4,0.7c2.1,0,3.6-0.5,4.6-1.5
		s1.6-2.4,1.9-4.1L66.9,32.4L66.9,32.4z"/>
	<path class="st0" d="M85.6,36.4c-0.4,0.4-0.8,0.9-1.3,1.3c-0.5,0.4-1.1,0.8-1.7,1.1s-1.3,0.6-2.1,0.8c-0.8,0.2-1.6,0.3-2.5,0.3
		c-2.3,0-4.1-0.5-5.4-1.6c-1.4-1.1-2-2.7-2-4.9c0-1.4,0.3-2.6,0.9-3.6c0.6-0.9,1.4-1.6,2.4-2.2c1-0.5,2.2-0.9,3.5-1.1s2.6-0.3,4-0.4
		l4.2-0.2v-0.7c0-2.1-0.4-3.6-1.2-4.6c-0.8-1-2.3-1.5-4.4-1.5c-1,0-1.9,0.1-2.6,0.3c-0.7,0.2-1.3,0.4-1.8,0.7
		c-0.5,0.3-0.9,0.7-1.1,1.1c-0.3,0.4-0.5,0.9-0.6,1.4l-2.2-0.3c0.8-3.5,3.6-5.3,8.4-5.3c1.5,0,2.8,0.2,3.8,0.5
		c1,0.4,1.9,0.9,2.5,1.6s1.1,1.5,1.4,2.5s0.4,2.1,0.4,3.4v14.2h-2.4v-2.8C85.8,36.4,85.6,36.4,85.6,36.4z M85.6,28l-4,0.2
		c-1.6,0.1-3,0.2-4,0.4c-1.1,0.2-2,0.6-2.6,1c-0.7,0.4-1.1,1-1.4,1.6s-0.4,1.4-0.4,2.2c0,1.3,0.4,2.4,1.1,3.2s2,1.2,3.9,1.2
		c0.9,0,1.8-0.1,2.7-0.3c0.9-0.2,1.6-0.5,2.2-1c0.5-0.4,0.9-0.7,1.2-1c0.3-0.3,0.6-0.7,0.8-1.1c0.2-0.4,0.4-0.9,0.4-1.4
		c0.1-0.5,0.1-1.1,0.1-1.8C85.6,31.2,85.6,28,85.6,28z"/>
	<path class="st0" d="M93.8,17.9h2.4v3.5c1.2-1.5,2.4-2.5,3.7-3.2c1.3-0.7,2.7-1,4.2-1c2.5,0,4.3,0.7,5.4,2c1.2,1.4,1.8,3.3,1.8,5.8
		v14.3H109V25.7c0-2.3-0.4-3.9-1.2-4.9c-0.8-1-2.1-1.5-3.8-1.5c-0.8,0-1.7,0.2-2.7,0.5c-0.9,0.3-1.8,0.8-2.5,1.5
		c-0.8,0.7-1.5,1.5-1.9,2.2c-0.4,0.8-0.6,1.8-0.6,3.2v12.6h-2.4L93.8,17.9L93.8,17.9z"/>
	<path class="st0" d="M114.2,17.9h2.8l7.3,18.9l7.5-18.9h2.6l-8.7,21.5h-2.8L114.2,17.9z"/>
	<path class="st0" d="M151.3,36.4c-0.4,0.4-0.8,0.9-1.3,1.3c-0.5,0.4-1.1,0.8-1.7,1.1c-0.6,0.3-1.3,0.6-2.1,0.8s-1.6,0.3-2.5,0.3
		c-2.3,0-4.1-0.5-5.4-1.6c-1.4-1.1-2-2.7-2-4.9c0-1.4,0.3-2.6,0.9-3.6c0.6-0.9,1.4-1.6,2.4-2.2c1-0.5,2.2-0.9,3.5-1.1s2.6-0.3,4-0.4
		l4.2-0.2v-0.7c0-2.1-0.4-3.6-1.2-4.6s-2.3-1.5-4.4-1.5c-1,0-1.9,0.1-2.6,0.3c-0.7,0.2-1.3,0.4-1.8,0.7c-0.5,0.3-0.9,0.7-1.1,1.1
		c-0.3,0.4-0.5,0.9-0.6,1.4l-2.2-0.3c0.8-3.5,3.6-5.3,8.4-5.3c1.5,0,2.8,0.2,3.8,0.5c1,0.4,1.9,0.9,2.5,1.6s1.1,1.5,1.4,2.5
		c0.3,1,0.4,2.1,0.4,3.4v14.2h-2.4v-2.8C151.5,36.4,151.3,36.4,151.3,36.4z M151.2,28l-4,0.2c-1.6,0.1-3,0.2-4,0.4
		c-1.1,0.2-2,0.6-2.6,1c-0.7,0.4-1.1,1-1.4,1.6c-0.3,0.6-0.4,1.4-0.4,2.2c0,1.3,0.4,2.4,1.1,3.2c0.7,0.8,2,1.2,3.9,1.2
		c0.9,0,1.8-0.1,2.7-0.3s1.6-0.5,2.2-1c0.5-0.4,0.9-0.7,1.2-1s0.6-0.7,0.8-1.1c0.2-0.4,0.4-0.9,0.4-1.4c0.1-0.5,0.1-1.1,0.1-1.8V28z
		"/>
	<path class="st0" d="M160.8,33.4c0.3,1.7,1,2.9,2.1,3.6c1.1,0.7,2.7,1,4.8,1s3.6-0.4,4.4-1.2c0.9-0.8,1.3-1.8,1.3-2.9
		c0-0.5-0.1-1-0.2-1.4c-0.1-0.4-0.3-0.8-0.6-1.2c-0.3-0.4-0.8-0.7-1.4-0.9c-0.6-0.3-1.4-0.5-2.3-0.6l-2.6-0.4
		c-1.1-0.2-2.2-0.4-3.1-0.7c-0.9-0.3-1.7-0.6-2.3-1.1s-1.1-1-1.4-1.7c-0.3-0.7-0.5-1.5-0.5-2.5c0-0.9,0.2-1.8,0.6-2.6
		c0.4-0.8,1-1.4,1.7-1.9s1.6-0.9,2.6-1.2c1-0.3,2-0.4,3.2-0.4c1.5,0,2.7,0.1,3.7,0.4s1.8,0.7,2.4,1.2c0.6,0.5,1.1,1.1,1.5,1.8
		c0.3,0.7,0.6,1.4,0.8,2.1l-2.2,0.5c-0.2-0.6-0.5-1.2-0.8-1.7s-0.7-0.9-1.1-1.2c-0.4-0.3-1-0.6-1.7-0.7c-0.7-0.2-1.5-0.3-2.5-0.3
		c-1.1,0-2,0.1-2.8,0.3s-1.4,0.5-1.8,0.9c-0.5,0.4-0.8,0.8-1,1.3s-0.3,1-0.3,1.5s0.1,1,0.2,1.4c0.1,0.4,0.3,0.8,0.7,1.1
		c0.3,0.3,0.8,0.6,1.4,0.8c0.6,0.2,1.4,0.4,2.4,0.6l3.3,0.5c2.3,0.4,3.9,1.1,5.1,2c1.1,1,1.7,2.4,1.7,4.4c0,0.8-0.2,1.6-0.5,2.4
		c-0.4,0.8-0.9,1.4-1.6,1.9c-0.7,0.5-1.6,1-2.6,1.3s-2.2,0.5-3.6,0.5c-1.3,0-2.5-0.1-3.6-0.4c-1.1-0.3-2.1-0.7-2.9-1.2
		c-0.8-0.5-1.5-1.2-2-2.1c-0.5-0.8-0.8-1.9-0.9-3.1L160.8,33.4L160.8,33.4z"/>
</g>
<path class="st0" d="M33.9,2.9H12.4c-5.5,0-9.9,4.4-9.9,9.9v16.8c0,0.2,0.1,0.3,0.2,0.4l0,0c0.2,0.2,0.4,0.3,0.7,0.3
	s0.6-0.2,0.7-0.4c0.1-0.1,0.1-0.2,0.1-0.3v-0.1l0,0l0,0V12.8c0-4.5,3.7-8.2,8.2-8.2h21.5c4.5,0,8.2,3.7,8.2,8.2v19.6
	c0,4.5-3.7,8.2-8.2,8.2H19.3c0,0.5,0.1,1,0.4,1.7h14.1c5.5,0,9.9-4.4,9.9-9.9V12.8C43.8,7.3,39.3,2.9,33.9,2.9z"/>
<path class="st0" d="M30.2,7.2c-1.4-0.7-3.1-0.2-3.9,1.2c0,0,0,0,0,0.1v0.1c0,0.1-0.1,0.1-0.1,0.2l-8.7,18.9c-0.8,0-1.6,0.2-2.4,0.6
	c-2.1,1.6-3.2,4.4-2.8,6.9c0,0.7,0.1,1.5,0.5,2.4c0.8,2.1,2.6,3.8,4.7,4.6c0.2,0.1,0.5,0,0.7-0.1c0.1-0.2,0.2-0.5,0.1-0.7
	c-1.2-2.5,0.1-3.5,1.5-4.7c0.6-0.5,1.2-1.1,1.6-1.6c1.1-1.8,0.8-4.1-0.5-5.6l10.4-18.1c0-0.1,0.1-0.1,0.1-0.2v-0.1l0,0
	c0-0.1,0.1-0.1,0.1-0.2C32.1,9.5,31.5,7.9,30.2,7.2z M19.4,26.4l1.5,0.6l-0.8,1.4l-1.3-0.6L19.4,26.4z M20.4,34.3
	c-0.4,0.6-0.8,1.1-1.4,1.4c-1.2,0.9-2.8,2.4-2.4,4.7c-1.9-1.2-3.2-3.2-3.3-5.4c-0.4-2.2,0.6-4.5,2.2-5.8c0.8-0.6,1.9-0.6,2.8-0.2
	l0.6,0.3c0,0,0.1,0,0.1,0.1C20.8,30.4,21.4,32.6,20.4,34.3z M30.4,10.5L30.4,10.5c0,0.1,0,0.1-0.1,0.1l-0.1,0.1L21.5,26l-1.6-0.6
	l7.4-16.1V9.2c0,0,0-0.1,0.1-0.1c0,0,0,0,0-0.1c0.4-0.8,1.4-1.1,2.2-0.7C30.4,8.7,30.8,9.7,30.4,10.5z"/>
<path class="st1" d="M51.8,9.7h1.6V11h-2c-0.5,0-0.9-0.1-1.3-0.2c-0.3-0.1-0.6-0.3-0.9-0.5c-0.3-0.3-0.5-0.6-0.6-1
	c-0.1-0.4-0.2-0.8-0.2-1.2c0-0.5,0.1-0.9,0.2-1.3c0.1-0.4,0.4-0.7,0.6-1c0.2-0.2,0.5-0.4,0.9-0.5s0.8-0.2,1.3-0.2h2v1.3h-1.6
	c-0.7,0-1.2,0.1-1.5,0.4C50.1,7,50,7.4,50,8.1C50,8.4,50,8.7,50.1,9c0.1,0.2,0.3,0.4,0.5,0.6c0.1,0.1,0.2,0.1,0.4,0.1
	C51.2,9.7,51.4,9.7,51.8,9.7z"/>
<path class="st1" d="M59.5,11h-2.8c-0.8,0-1.4-0.2-1.8-0.5c-0.4-0.3-0.6-0.9-0.6-1.7V5.1h1.5v3.6c0,0.4,0.1,0.7,0.2,0.8
	c0.1,0.1,0.4,0.2,0.8,0.2H58V5.1h1.5V11z"/>
<path class="st1" d="M62,2.9v2.1h1.3c0.6,0,1,0.1,1.4,0.2C65,5.4,65.3,5.6,65.5,6c0.2,0.3,0.4,0.6,0.5,0.9c0.1,0.3,0.2,0.7,0.2,1.1
	c0,1-0.2,1.7-0.7,2.2c-0.5,0.5-1.2,0.8-2,0.8h-2.9V2.9H62z M62.9,6.3H62v3.4h1c0.6,0,1-0.1,1.2-0.4c0.2-0.3,0.3-0.7,0.3-1.3
	c0-0.6-0.1-1.1-0.4-1.3C63.9,6.5,63.5,6.3,62.9,6.3z"/>
<path class="st1" d="M69.7,11c-0.9,0-1.6-0.3-2.1-0.8C67.1,9.7,66.9,9,66.9,8c0-1,0.2-1.7,0.7-2.2c0.5-0.5,1.2-0.8,2.1-0.8h2.2v1.2
	h-2c-0.5,0-0.9,0.1-1.1,0.2c-0.2,0.2-0.3,0.5-0.3,0.9h3.4v1.2h-3.4c0,0.4,0.1,0.7,0.3,0.9c0.2,0.2,0.5,0.2,1.1,0.2h2V11H69.7z"/>
<path class="st2" d="M77.3,6.9L76.1,11h-1.7l-2-5.9h1.6l1.2,4.2l1.2-4.2h1.6l1.3,4.2l1.3-4.2h1.5L80.3,11h-1.7L77.3,6.9z"/>
<path class="st2" d="M84.3,4.4h-1.6V2.9h1.6V4.4z M84.3,11h-1.6V5.1h1.6V11z"/>
<path class="st2" d="M85.1,9.8h3.2c0.3,0,0.5,0,0.6-0.1c0.1-0.1,0.2-0.2,0.2-0.4c0-0.2-0.1-0.4-0.2-0.4c-0.1-0.1-0.3-0.1-0.6-0.1H87
	c-0.8,0-1.3-0.1-1.6-0.4C85.2,8,85,7.5,85,6.9c0-0.6,0.2-1.1,0.5-1.4c0.3-0.3,0.8-0.5,1.5-0.5h3.2v1.2h-2.6c-0.4,0-0.7,0-0.8,0.1
	c-0.1,0.1-0.2,0.2-0.2,0.4c0,0.2,0.1,0.3,0.2,0.4c0.1,0.1,0.3,0.1,0.5,0.1h1.4c0.6,0,1.1,0.2,1.4,0.5c0.3,0.3,0.5,0.7,0.5,1.3
	c0,0.6-0.1,1-0.4,1.3C89.8,10.8,89.4,11,89,11h-3.9V9.8z"/>
<path class="st2" d="M94.1,11c-0.9,0-1.6-0.3-2.1-0.8C91.5,9.7,91.3,9,91.3,8c0-1,0.2-1.7,0.7-2.2c0.5-0.5,1.2-0.8,2.1-0.8h2.2v1.2
	h-2c-0.5,0-0.9,0.1-1.1,0.2C93.1,6.7,93,7,92.9,7.4h3.4v1.2h-3.4c0,0.4,0.1,0.7,0.3,0.9c0.2,0.2,0.5,0.2,1.1,0.2h2V11H94.1z"/>
</svg>
